<svg width="996" height="341" fill="none" xmlns="http://www.w3.org/2000/svg"><path fill="#fff" d="M0 0h996v341H0z"/><path d="M463 234v-31.5a4 4 0 014-4h179a4 4 0 004-4V165M882 234v-31.5a4 4 0 00-4-4H654a4 4 0 01-4-4V165M573 234.5v-36M670 234.5v-36M782 234.5v-36" stroke="#949495" stroke-width="1.5" stroke-linecap="round" stroke-dasharray="0.1 8"/><g filter="url(#filter0_dd_314_78)"><circle cx="650" cy="180" r="2" fill="#5A50FB"/><circle cx="650" cy="180" r="1.75" stroke="url(#paint0_linear_314_78)" stroke-opacity=".1" stroke-width=".5"/></g><rect x="414" y="232" width="99" height="29" rx="14.5" fill="#F4F3FF"/><path d="M431.645 241.545V251h-1.712v-9.455h1.712zm3.452 5.3V251h-1.671v-7.091h1.597v1.205h.083c.164-.397.424-.712.781-.946.36-.234.804-.351 1.334-.351.489 0 .915.104 1.279.314.366.209.649.512.849.909.203.397.303.879.3 1.445V251h-1.671v-4.256c0-.474-.123-.845-.369-1.113-.244-.268-.581-.402-1.011-.402-.293 0-.553.065-.781.194-.224.126-.401.31-.531.55-.126.24-.189.531-.189.872zm8.882 4.28a2.675 2.675 0 01-1.495-.43c-.441-.286-.788-.701-1.044-1.246-.255-.545-.383-1.207-.383-1.985 0-.788.129-1.453.388-1.995.261-.544.614-.955 1.057-1.232.443-.28.937-.42 1.482-.42.415 0 .757.071 1.025.212.268.139.48.306.637.503.157.194.278.377.365.55h.069v-3.537h1.676V251h-1.644v-1.117h-.101a2.913 2.913 0 01-.374.549 2.063 2.063 0 01-.647.49c-.267.135-.604.203-1.011.203zm.467-1.371c.354 0 .655-.096.904-.287.25-.194.439-.463.568-.808.129-.344.194-.746.194-1.204 0-.459-.065-.858-.194-1.196a1.703 1.703 0 00-.563-.79c-.246-.187-.549-.281-.909-.281-.373 0-.684.097-.933.291a1.759 1.759 0 00-.563.803 3.376 3.376 0 00-.189 1.173c0 .443.063.838.189 1.186.129.345.318.617.568.817.252.197.561.296.928.296zm5.09 1.246v-7.091h1.672V251h-1.672zm.841-8.097a.978.978 0 01-.684-.263.853.853 0 01-.286-.642c0-.252.096-.466.286-.642a.97.97 0 01.684-.268c.267 0 .495.09.683.268a.84.84 0 01.286.642.85.85 0 01-.286.642.967.967 0 01-.683.263zm8.883 1.006L456.735 251h-1.847l-2.525-7.091h1.782l1.629 5.267h.074l1.635-5.267h1.777zm1.156 7.091v-7.091h1.671V251h-1.671zm.84-8.097a.978.978 0 01-.683-.263.85.85 0 01-.286-.642.84.84 0 01.286-.642.969.969 0 01.683-.268.96.96 0 01.684.268.84.84 0 01.286.642.85.85 0 01-.286.642.968.968 0 01-.684.263zm5.181 8.222a2.675 2.675 0 01-1.495-.43c-.441-.286-.788-.701-1.044-1.246-.255-.545-.383-1.207-.383-1.985 0-.788.129-1.453.388-1.995.261-.544.614-.955 1.057-1.232.443-.28.937-.42 1.482-.42.415 0 .757.071 1.025.212.268.139.48.306.637.503.157.194.278.377.365.55h.069v-3.537h1.676V251h-1.644v-1.117h-.101a2.913 2.913 0 01-.374.549 2.063 2.063 0 01-.647.49c-.267.135-.604.203-1.011.203zm.467-1.371c.354 0 .655-.096.904-.287.25-.194.439-.463.568-.808.13-.344.194-.746.194-1.204 0-.459-.064-.858-.194-1.196a1.703 1.703 0 00-.563-.79c-.246-.187-.549-.281-.909-.281-.373 0-.684.097-.933.291a1.759 1.759 0 00-.563.803 3.376 3.376 0 00-.189 1.173c0 .443.063.838.189 1.186.129.345.318.617.568.817.252.197.561.296.928.296zm9.61-1.736v-4.109h1.671V251h-1.62v-1.26h-.074c-.16.397-.423.721-.79.974-.363.252-.811.378-1.343.378-.465 0-.876-.103-1.233-.309a2.16 2.16 0 01-.831-.909c-.2-.401-.3-.884-.3-1.45v-4.515h1.672v4.256c0 .45.123.807.369 1.072.246.264.569.397.969.397.247 0 .485-.06.716-.181.231-.12.42-.298.568-.535.151-.24.226-.54.226-.9zm5.43 3.125a2.96 2.96 0 01-1.214-.24 1.978 1.978 0 01-.849-.72c-.207-.317-.31-.708-.31-1.173 0-.4.074-.731.222-.992.148-.262.349-.471.605-.628.255-.157.543-.276.863-.356a7.035 7.035 0 011.002-.18c.415-.043.752-.081 1.011-.115.258-.037.446-.092.563-.166.12-.077.18-.196.18-.356v-.027c0-.348-.103-.617-.309-.808-.207-.191-.504-.286-.891-.286-.41 0-.734.089-.974.267-.237.179-.398.39-.481.633l-1.56-.222c.123-.431.326-.791.609-1.08a2.67 2.67 0 011.039-.656 3.99 3.99 0 011.357-.221c.342 0 .682.04 1.021.12.338.08.647.212.928.397.28.181.504.429.674.743.172.314.258.706.258 1.177V251h-1.607v-.974h-.055a2.035 2.035 0 01-.429.554 2.08 2.08 0 01-.688.411 2.789 2.789 0 01-.965.152zm.434-1.228c.335 0 .626-.066.873-.198.246-.136.435-.314.567-.536.136-.221.203-.463.203-.725v-.835a.783.783 0 01-.267.12 3.842 3.842 0 01-.416.097c-.154.027-.306.052-.457.074l-.392.055a2.933 2.933 0 00-.67.166 1.116 1.116 0 00-.466.323.791.791 0 00-.171.527c0 .307.113.54.337.697.225.157.511.235.859.235zm6.662-8.37V251h-1.672v-9.455h1.672zm7.322 4.238l-1.523.167a1.213 1.213 0 00-.226-.434 1.117 1.117 0 00-.425-.328 1.546 1.546 0 00-.655-.125c-.348 0-.641.076-.878.226-.233.151-.349.347-.346.587a.616.616 0 00.226.503c.157.129.416.235.776.318l1.21.259c.67.145 1.169.374 1.495.688.33.314.496.725.499 1.232a1.923 1.923 0 01-.393 1.182c-.255.339-.61.603-1.066.794-.455.191-.979.286-1.57.286-.867 0-1.566-.181-2.095-.544-.53-.366-.845-.876-.947-1.528l1.63-.157c.074.32.231.561.471.725.24.163.552.244.937.244.397 0 .715-.081.955-.244.244-.164.365-.365.365-.605a.629.629 0 00-.235-.503c-.154-.133-.394-.234-.72-.305l-1.21-.254c-.68-.142-1.183-.38-1.51-.716-.326-.338-.487-.766-.484-1.283a1.819 1.819 0 01.355-1.136c.243-.323.58-.572 1.011-.747.434-.179.934-.268 1.5-.268.831 0 1.485.177 1.963.531.48.354.777.832.89 1.435z" fill="#5A50FA"/><rect x="520" y="232" width="102" height="29" rx="14.5" fill="#F4F3FF"/><path d="M535.933 251v-9.455h3.619c.683 0 1.251.108 1.703.324.456.212.796.503 1.021.872.227.369.341.788.341 1.256 0 .385-.074.714-.221.988a1.866 1.866 0 01-.596.66 2.527 2.527 0 01-.836.365v.092c.336.018.658.121.965.309.311.185.565.446.762.785.197.339.296.748.296 1.228 0 .489-.119.929-.356 1.32-.237.388-.594.694-1.071.919-.477.225-1.077.337-1.8.337h-3.827zm1.712-1.431h1.842c.622 0 1.07-.119 1.344-.356.277-.24.415-.547.415-.923a1.41 1.41 0 00-.799-1.292c-.255-.133-.56-.199-.914-.199h-1.888v2.77zm0-4.003h1.694c.296 0 .562-.053.799-.161.237-.111.423-.266.559-.466.138-.204.207-.444.207-.721 0-.366-.129-.667-.387-.904-.256-.237-.636-.356-1.141-.356h-1.731v2.608zm11.277 2.452v-4.109h1.671V251h-1.62v-1.26h-.074c-.16.397-.423.721-.789.974-.364.252-.811.378-1.344.378-.464 0-.875-.103-1.232-.309a2.146 2.146 0 01-.831-.909c-.2-.401-.3-.884-.3-1.45v-4.515h1.671v4.256c0 .45.123.807.369 1.072.246.264.569.397.97.397a1.521 1.521 0 001.283-.716c.151-.24.226-.54.226-.9zm8.994-2.235l-1.523.167a1.23 1.23 0 00-.226-.434 1.125 1.125 0 00-.425-.328 1.55 1.55 0 00-.656-.125c-.347 0-.64.076-.877.226-.234.151-.349.347-.346.587a.613.613 0 00.226.503c.157.129.416.235.776.318l1.209.259c.671.145 1.17.374 1.496.688.329.314.495.725.499 1.232a1.93 1.93 0 01-.393 1.182c-.255.339-.611.603-1.066.794-.456.191-.979.286-1.57.286-.868 0-1.566-.181-2.096-.544-.529-.366-.845-.876-.946-1.528l1.629-.157c.074.32.231.561.471.725.24.163.553.244.938.244.397 0 .715-.081.955-.244.243-.164.365-.365.365-.605a.63.63 0 00-.236-.503c-.153-.133-.394-.234-.72-.305l-1.209-.254c-.68-.142-1.184-.38-1.51-.716-.326-.338-.488-.766-.485-1.283a1.82 1.82 0 01.356-1.136c.243-.323.58-.572 1.011-.747.434-.179.934-.268 1.5-.268.831 0 1.485.177 1.962.531.48.354.777.832.891 1.435zm1.531 5.217v-7.091h1.671V251h-1.671zm.84-8.097a.974.974 0 01-.683-.263.85.85 0 01-.287-.642c0-.252.096-.466.287-.642a.965.965 0 01.683-.268c.268 0 .495.09.683.268a.84.84 0 01.286.642.85.85 0 01-.286.642.966.966 0 01-.683.263zm4.22 3.942V251h-1.671v-7.091h1.598v1.205h.083c.163-.397.423-.712.78-.946.36-.234.805-.351 1.334-.351.489 0 .916.104 1.279.314.366.209.649.512.849.909.203.397.303.879.3 1.445V251h-1.671v-4.256c0-.474-.123-.845-.369-1.113-.243-.268-.58-.402-1.011-.402-.293 0-.553.065-.78.194-.225.126-.402.31-.531.55-.127.24-.19.531-.19.872zm9.39 4.293c-.711 0-1.325-.147-1.842-.443a2.996 2.996 0 01-1.186-1.265c-.277-.547-.416-1.192-.416-1.934 0-.729.139-1.369.416-1.92.28-.554.671-.985 1.172-1.293.502-.311 1.091-.466 1.769-.466.437 0 .849.071 1.237.212a2.81 2.81 0 011.034.646c.301.293.538.665.711 1.118.172.449.258.984.258 1.606v.513h-5.812v-1.127h4.21a1.8 1.8 0 00-.207-.854 1.513 1.513 0 00-.568-.595 1.592 1.592 0 00-.84-.217c-.342 0-.642.083-.901.249-.258.163-.46.378-.604.646a1.857 1.857 0 00-.217.873v.983c0 .412.075.766.226 1.062.151.292.362.517.632.674.271.154.588.231.951.231.244 0 .464-.034.661-.102.196-.071.367-.174.512-.309a1.29 1.29 0 00.328-.503l1.56.175a2.424 2.424 0 01-.563 1.08 2.74 2.74 0 01-1.053.711c-.427.166-.917.249-1.468.249zm10.172-5.355l-1.524.167a1.213 1.213 0 00-.226-.434 1.117 1.117 0 00-.425-.328 1.546 1.546 0 00-.655-.125c-.348 0-.641.076-.877.226-.234.151-.35.347-.347.587a.616.616 0 00.226.503c.157.129.416.235.776.318l1.21.259c.67.145 1.169.374 1.495.688.33.314.496.725.499 1.232a1.923 1.923 0 01-.393 1.182c-.255.339-.61.603-1.066.794-.455.191-.979.286-1.57.286-.867 0-1.566-.181-2.095-.544-.53-.366-.845-.876-.947-1.528l1.63-.157c.074.32.231.561.471.725.24.163.552.244.937.244.397 0 .715-.081.955-.244.244-.164.365-.365.365-.605a.629.629 0 00-.235-.503c-.154-.133-.394-.234-.72-.305l-1.21-.254c-.68-.142-1.183-.38-1.51-.716-.326-.338-.487-.766-.484-1.283a1.819 1.819 0 01.355-1.136c.243-.323.58-.572 1.011-.747.434-.179.934-.268 1.501-.268.831 0 1.485.177 1.962.531.48.354.777.832.891 1.435zm7.134 0l-1.523.167a1.23 1.23 0 00-.226-.434 1.125 1.125 0 00-.425-.328 1.55 1.55 0 00-.656-.125c-.347 0-.64.076-.877.226-.234.151-.349.347-.346.587a.613.613 0 00.226.503c.157.129.416.235.776.318l1.209.259c.671.145 1.17.374 1.496.688.329.314.496.725.499 1.232a1.923 1.923 0 01-.393 1.182c-.255.339-.611.603-1.066.794-.456.191-.979.286-1.57.286-.868 0-1.566-.181-2.096-.544-.529-.366-.844-.876-.946-1.528l1.63-.157c.073.32.23.561.47.725.241.163.553.244.938.244.397 0 .715-.081.955-.244.243-.164.365-.365.365-.605a.63.63 0 00-.236-.503c-.153-.133-.393-.234-.72-.305l-1.209-.254c-.68-.142-1.184-.38-1.51-.716-.326-.338-.488-.766-.485-1.283a1.82 1.82 0 01.356-1.136c.243-.323.58-.572 1.011-.747.434-.179.934-.268 1.5-.268.831 0 1.485.177 1.962.531.48.354.777.832.891 1.435zm4.67 5.355c-.711 0-1.325-.147-1.842-.443a2.998 2.998 0 01-1.187-1.265c-.277-.547-.415-1.192-.415-1.934 0-.729.138-1.369.415-1.92a3.15 3.15 0 011.173-1.293c.502-.311 1.091-.466 1.768-.466.437 0 .85.071 1.237.212.391.139.736.354 1.034.646.302.293.539.665.711 1.118.173.449.259.984.259 1.606v.513h-5.812v-1.127h4.21a1.79 1.79 0 00-.208-.854 1.499 1.499 0 00-.568-.595 1.592 1.592 0 00-.84-.217c-.341 0-.641.083-.9.249-.258.163-.46.378-.605.646a1.869 1.869 0 00-.217.873v.983c0 .412.076.766.226 1.062.151.292.362.517.633.674.271.154.588.231.951.231.243 0 .463-.034.66-.102a1.48 1.48 0 00.513-.309 1.3 1.3 0 00.327-.503l1.561.175a2.436 2.436 0 01-.564 1.08 2.73 2.73 0 01-1.052.711c-.428.166-.917.249-1.468.249zm10.171-5.355l-1.523.167a1.216 1.216 0 00-.227-.434 1.113 1.113 0 00-.424-.328 1.55 1.55 0 00-.656-.125c-.348 0-.64.076-.877.226-.234.151-.349.347-.346.587a.613.613 0 00.226.503c.157.129.416.235.776.318l1.209.259c.671.145 1.17.374 1.496.688.329.314.495.725.498 1.232a1.922 1.922 0 01-.392 1.182c-.255.339-.611.603-1.066.794-.456.191-.979.286-1.57.286-.868 0-1.566-.181-2.096-.544-.529-.366-.845-.876-.946-1.528l1.629-.157c.074.32.231.561.471.725.24.163.553.244.937.244.397 0 .716-.081.956-.244.243-.164.365-.365.365-.605a.63.63 0 00-.236-.503c-.154-.133-.394-.234-.72-.305l-1.209-.254c-.681-.142-1.184-.38-1.51-.716-.326-.338-.488-.766-.485-1.283a1.82 1.82 0 01.356-1.136c.243-.323.58-.572 1.011-.747.434-.179.934-.268 1.5-.268.831 0 1.485.177 1.962.531.48.354.777.832.891 1.435z" fill="#5A50FA"/><rect x="629" y="232" width="90" height="29" rx="14.5" fill="#F4F3FF"/><path d="M646.147 251h-1.828l3.328-9.455h2.114l3.333 9.455h-1.828l-2.525-7.516h-.074l-2.52 7.516zm.06-3.707h4.985v1.376h-4.985v-1.376zm10.936 3.845c-.708 0-1.316-.155-1.823-.466a3.112 3.112 0 01-1.168-1.288c-.271-.551-.407-1.185-.407-1.902 0-.72.139-1.355.416-1.906a3.107 3.107 0 011.172-1.293c.508-.311 1.108-.466 1.801-.466.575 0 1.085.106 1.528.318.446.21.802.507 1.066.891.265.382.416.828.453 1.339h-1.598a1.523 1.523 0 00-.461-.854c-.24-.231-.562-.346-.965-.346-.342 0-.642.092-.9.277-.259.181-.46.443-.605.785-.142.341-.212.751-.212 1.228 0 .483.07.898.212 1.246.142.345.34.611.596.799.258.184.561.277.909.277.246 0 .466-.047.66-.139.197-.095.362-.232.494-.411.132-.178.223-.395.272-.651h1.598c-.04.502-.188.947-.443 1.335a2.63 2.63 0 01-1.044.904c-.44.216-.957.323-1.551.323zm7.503 0c-.708 0-1.316-.155-1.823-.466a3.106 3.106 0 01-1.168-1.288c-.271-.551-.407-1.185-.407-1.902 0-.72.139-1.355.416-1.906a3.107 3.107 0 011.172-1.293c.508-.311 1.108-.466 1.801-.466.575 0 1.085.106 1.528.318.446.21.802.507 1.066.891.265.382.416.828.453 1.339h-1.598a1.523 1.523 0 00-.461-.854c-.24-.231-.562-.346-.965-.346-.342 0-.642.092-.9.277-.259.181-.46.443-.605.785-.142.341-.212.751-.212 1.228 0 .483.07.898.212 1.246.141.345.34.611.595.799.259.184.562.277.91.277.246 0 .466-.047.66-.139.197-.095.362-.232.494-.411.132-.178.223-.395.272-.651h1.598c-.04.502-.188.947-.443 1.335a2.63 2.63 0 01-1.044.904c-.44.216-.957.323-1.551.323zm7.503 0c-.693 0-1.293-.152-1.8-.457a3.095 3.095 0 01-1.182-1.278c-.277-.548-.416-1.188-.416-1.921 0-.732.139-1.374.416-1.925a3.09 3.09 0 011.182-1.283c.507-.305 1.107-.457 1.8-.457.692 0 1.293.152 1.8.457.508.304.901.732 1.178 1.283.28.551.42 1.193.42 1.925 0 .733-.14 1.373-.42 1.921-.277.548-.67.974-1.178 1.278-.507.305-1.108.457-1.8.457zm.009-1.338c.376 0 .69-.103.942-.31.252-.209.44-.489.563-.84a3.45 3.45 0 00.189-1.172 3.47 3.47 0 00-.189-1.178 1.86 1.86 0 00-.563-.844c-.252-.21-.566-.314-.942-.314-.385 0-.705.104-.96.314-.252.209-.442.49-.568.844a3.547 3.547 0 00-.185 1.178c0 .43.062.821.185 1.172.126.351.316.631.568.84.255.207.575.31.96.31zm9.327-1.782v-4.109h1.671V251h-1.621v-1.26h-.073c-.16.397-.424.721-.79.974-.363.252-.811.378-1.343.378-.465 0-.876-.103-1.233-.309a2.146 2.146 0 01-.831-.909c-.2-.401-.3-.884-.3-1.45v-4.515h1.671v4.256c0 .45.123.807.37 1.072.246.264.569.397.969.397.246 0 .485-.06.716-.181.23-.12.42-.298.567-.535.151-.24.227-.54.227-.9zm5.06-1.173V251h-1.671v-7.091h1.598v1.205h.083c.163-.397.423-.712.78-.946.36-.234.805-.351 1.334-.351.489 0 .916.104 1.279.314.366.209.649.512.849.909.203.397.303.879.3 1.445V251h-1.671v-4.256c0-.474-.123-.845-.369-1.113-.243-.268-.58-.402-1.011-.402-.293 0-.553.065-.78.194-.225.126-.402.31-.531.55-.126.24-.19.531-.19.872zm9.792-2.936v1.293h-4.076v-1.293h4.076zm-3.07-1.699h1.671v6.657c0 .225.034.397.102.517a.548.548 0 00.277.24c.114.043.24.065.378.065.105 0 .2-.008.287-.023.089-.016.156-.029.203-.042l.281 1.307a3.705 3.705 0 01-.383.101 3.113 3.113 0 01-.6.065 2.735 2.735 0 01-1.131-.189 1.758 1.758 0 01-.799-.656c-.194-.295-.289-.665-.286-1.108v-6.934zm9.97 3.573l-1.523.167a1.213 1.213 0 00-.226-.434 1.117 1.117 0 00-.425-.328 1.546 1.546 0 00-.655-.125c-.348 0-.641.076-.878.226-.233.151-.349.347-.346.587a.616.616 0 00.226.503c.157.129.416.235.776.318l1.21.259c.67.145 1.169.374 1.495.688.33.314.496.725.499 1.232a1.923 1.923 0 01-.393 1.182c-.255.339-.61.603-1.066.794-.455.191-.979.286-1.57.286-.867 0-1.566-.181-2.095-.544-.53-.366-.845-.876-.947-1.528l1.63-.157c.074.32.231.561.471.725.24.163.552.244.937.244.397 0 .715-.081.955-.244.244-.164.365-.365.365-.605a.629.629 0 00-.235-.503c-.154-.133-.394-.234-.72-.305l-1.21-.254c-.68-.142-1.183-.38-1.51-.716-.326-.338-.487-.766-.484-1.283a1.819 1.819 0 01.355-1.136c.243-.323.58-.572 1.011-.747.434-.179.934-.268 1.5-.268.831 0 1.485.177 1.963.531.48.354.777.832.89 1.435z" fill="#5A50FA"/><rect x="726" y="232" width="112" height="29" rx="14.5" fill="#F4F3FF"/><path d="M741.517 242.981v-1.436h7.543v1.436h-2.922V251h-1.699v-8.019h-2.922zm8.187 8.019v-7.091h1.621v1.182h.074c.129-.409.35-.725.664-.946a1.828 1.828 0 011.085-.337c.093 0 .196.004.31.013.117.007.213.017.29.033v1.537a1.749 1.749 0 00-.337-.065 3.172 3.172 0 00-.438-.032c-.305 0-.579.066-.822.199-.24.129-.429.309-.568.54-.138.23-.207.497-.207.798V251h-1.672zm7.068.143a2.96 2.96 0 01-1.214-.24 1.978 1.978 0 01-.849-.72c-.207-.317-.31-.708-.31-1.173 0-.4.074-.731.222-.992.148-.262.349-.471.605-.628.255-.157.543-.276.863-.356a7.035 7.035 0 011.002-.18c.415-.043.752-.081 1.011-.115.258-.037.446-.092.563-.166.12-.077.18-.196.18-.356v-.027c0-.348-.103-.617-.309-.808-.207-.191-.504-.286-.891-.286-.41 0-.734.089-.974.267-.237.179-.397.39-.48.633l-1.561-.222a2.48 2.48 0 01.61-1.08 2.659 2.659 0 011.038-.656c.41-.147.862-.221 1.357-.221.342 0 .682.04 1.021.12.338.08.648.212.928.397.28.181.504.429.674.743.172.314.258.706.258 1.177V251h-1.606v-.974h-.056a2.016 2.016 0 01-1.117.965 2.785 2.785 0 01-.965.152zm.434-1.228c.336 0 .626-.066.873-.198.246-.136.435-.314.567-.536.136-.221.204-.463.204-.725v-.835a.8.8 0 01-.268.12 3.842 3.842 0 01-.416.097c-.154.027-.306.052-.457.074l-.392.055a2.924 2.924 0 00-.669.166 1.12 1.12 0 00-.467.323.791.791 0 00-.171.527c0 .307.113.54.337.697.225.157.511.235.859.235zm6.662-3.07V251h-1.671v-7.091h1.597v1.205h.083c.163-.397.423-.712.78-.946.36-.234.805-.351 1.334-.351.49 0 .916.104 1.279.314.366.209.649.512.849.909.204.397.304.879.301 1.445V251h-1.672v-4.256c0-.474-.123-.845-.369-1.113-.243-.268-.58-.402-1.011-.402-.292 0-.552.065-.78.194-.225.126-.402.31-.531.55-.126.24-.189.531-.189.872zm11.855-1.062l-1.524.167a1.213 1.213 0 00-.226-.434 1.11 1.11 0 00-.425-.328 1.546 1.546 0 00-.655-.125c-.348 0-.64.076-.877.226-.234.151-.35.347-.346.587a.61.61 0 00.226.503c.157.129.415.235.775.318l1.21.259c.671.145 1.169.374 1.496.688.329.314.495.725.498 1.232a1.928 1.928 0 01-.392 1.182c-.256.339-.611.603-1.067.794-.455.191-.978.286-1.569.286-.868 0-1.567-.181-2.096-.544-.529-.366-.845-.876-.946-1.528l1.629-.157c.074.32.231.561.471.725.24.163.552.244.937.244.397 0 .716-.081.956-.244.243-.164.364-.365.364-.605a.629.629 0 00-.235-.503c-.154-.133-.394-.234-.72-.305l-1.21-.254c-.68-.142-1.183-.38-1.509-.716-.326-.338-.488-.766-.485-1.283a1.819 1.819 0 01.355-1.136c.244-.323.581-.572 1.011-.747.434-.179.935-.268 1.501-.268.831 0 1.485.177 1.962.531.48.354.777.832.891 1.435zm3.571 5.36c-.45 0-.854-.08-1.214-.24a1.98 1.98 0 01-.85-.72c-.206-.317-.309-.708-.309-1.173 0-.4.074-.731.221-.992.148-.262.35-.471.605-.628.256-.157.543-.276.863-.356a7.086 7.086 0 011.002-.18 38.19 38.19 0 001.011-.115c.259-.037.446-.092.563-.166.12-.077.18-.196.18-.356v-.027c0-.348-.103-.617-.309-.808-.206-.191-.503-.286-.891-.286-.409 0-.734.089-.974.267-.237.179-.397.39-.48.633l-1.56-.222c.123-.431.326-.791.609-1.08a2.655 2.655 0 011.039-.656 3.986 3.986 0 011.357-.221c.342 0 .682.04 1.02.12.339.08.648.212.928.397.28.181.505.429.674.743.172.314.259.706.259 1.177V251h-1.607v-.974h-.055a2.04 2.04 0 01-.43.554c-.181.169-.41.306-.687.411a2.789 2.789 0 01-.965.152zm.434-1.228c.335 0 .626-.066.872-.198a1.47 1.47 0 00.568-.536c.135-.221.203-.463.203-.725v-.835a.78.78 0 01-.268.12 3.82 3.82 0 01-.415.097c-.154.027-.306.052-.457.074l-.393.055a2.924 2.924 0 00-.669.166 1.116 1.116 0 00-.466.323.791.791 0 00-.171.527c0 .307.112.54.337.697.225.157.511.235.859.235zm8.083 1.223c-.708 0-1.316-.155-1.823-.466a3.112 3.112 0 01-1.168-1.288c-.271-.551-.407-1.185-.407-1.902 0-.72.139-1.355.416-1.906a3.107 3.107 0 011.172-1.293c.508-.311 1.108-.466 1.801-.466.575 0 1.085.106 1.528.318.446.21.802.507 1.066.891.265.382.416.828.453 1.339h-1.598a1.523 1.523 0 00-.461-.854c-.24-.231-.562-.346-.965-.346-.342 0-.642.092-.9.277-.259.181-.46.443-.605.785-.142.341-.212.751-.212 1.228 0 .483.07.898.212 1.246.142.345.34.611.595.799.259.184.562.277.91.277.246 0 .466-.047.66-.139.197-.095.362-.232.494-.411.132-.178.223-.395.272-.651h1.598c-.04.502-.188.947-.443 1.335a2.63 2.63 0 01-1.044.904c-.44.216-.957.323-1.551.323zm7.951-7.229v1.293h-4.077v-1.293h4.077zm-3.07-1.699h1.671v6.657c0 .225.034.397.102.517.07.117.163.197.277.24.113.043.24.065.378.065.105 0 .2-.008.286-.023.09-.016.157-.029.203-.042l.282 1.307a3.705 3.705 0 01-.383.101 3.113 3.113 0 01-.6.065 2.735 2.735 0 01-1.131-.189 1.758 1.758 0 01-.799-.656c-.194-.295-.289-.665-.286-1.108v-6.934zm4.467 8.79v-7.091h1.672V251h-1.672zm.841-8.097a.978.978 0 01-.684-.263.853.853 0 01-.286-.642c0-.252.096-.466.286-.642a.97.97 0 01.684-.268c.267 0 .495.09.683.268a.84.84 0 01.286.642.85.85 0 01-.286.642.967.967 0 01-.683.263zm5.642 8.235c-.692 0-1.292-.152-1.8-.457a3.095 3.095 0 01-1.182-1.278c-.277-.548-.416-1.188-.416-1.921 0-.732.139-1.374.416-1.925a3.09 3.09 0 011.182-1.283c.508-.305 1.108-.457 1.8-.457.693 0 1.293.152 1.801.457.507.304.9.732 1.177 1.283.28.551.42 1.193.42 1.925 0 .733-.14 1.373-.42 1.921a3.07 3.07 0 01-1.177 1.278c-.508.305-1.108.457-1.801.457zm.009-1.338c.376 0 .69-.103.942-.31.252-.209.44-.489.563-.84.127-.351.19-.742.19-1.172 0-.434-.063-.827-.19-1.178a1.86 1.86 0 00-.563-.844c-.252-.21-.566-.314-.942-.314-.384 0-.704.104-.96.314-.252.209-.442.49-.568.844a3.547 3.547 0 00-.184 1.178c0 .43.061.821.184 1.172.126.351.316.631.568.84.256.207.576.31.96.31zm6.478-2.955V251h-1.671v-7.091h1.598v1.205h.083c.163-.397.423-.712.78-.946.36-.234.805-.351 1.334-.351.489 0 .916.104 1.279.314.366.209.649.512.849.909.203.397.303.879.3 1.445V251h-1.671v-4.256c0-.474-.123-.845-.369-1.113-.243-.268-.58-.402-1.011-.402-.293 0-.553.065-.78.194-.225.126-.402.31-.531.55-.126.24-.19.531-.19.872zm11.856-1.062l-1.524.167a1.213 1.213 0 00-.226-.434 1.117 1.117 0 00-.425-.328 1.546 1.546 0 00-.655-.125c-.348 0-.64.076-.877.226-.234.151-.35.347-.347.587a.616.616 0 00.226.503c.157.129.416.235.776.318l1.21.259c.671.145 1.169.374 1.495.688.33.314.496.725.499 1.232a1.923 1.923 0 01-.393 1.182c-.255.339-.61.603-1.066.794-.455.191-.979.286-1.57.286-.867 0-1.566-.181-2.095-.544-.53-.366-.845-.876-.947-1.528l1.63-.157c.074.32.231.561.471.725.24.163.552.244.937.244.397 0 .715-.081.955-.244.244-.164.365-.365.365-.605a.629.629 0 00-.235-.503c-.154-.133-.394-.234-.72-.305l-1.21-.254c-.68-.142-1.183-.38-1.51-.716-.326-.338-.487-.766-.484-1.283a1.819 1.819 0 01.355-1.136c.243-.323.58-.572 1.011-.747.434-.179.934-.268 1.501-.268.831 0 1.485.177 1.962.531.48.354.777.832.891 1.435z" fill="#5A50FA"/><rect x="845" y="232" width="73" height="29" rx="14.5" fill="#F4F3FF"/><path d="M860.933 251v-9.455h6.149v1.436h-4.437v2.567h4.118v1.436h-4.118v2.58h4.474V251h-6.186zm14.156-7.091L872.564 251h-1.847l-2.525-7.091h1.782l1.63 5.267h.073l1.635-5.267h1.777zm4.054 7.229c-.711 0-1.325-.147-1.842-.443a2.996 2.996 0 01-1.186-1.265c-.277-.547-.416-1.192-.416-1.934 0-.729.139-1.369.416-1.92.28-.554.671-.985 1.173-1.293.501-.311 1.091-.466 1.768-.466.437 0 .849.071 1.237.212a2.81 2.81 0 011.034.646c.302.293.539.665.711 1.118.172.449.258.984.258 1.606v.513h-5.812v-1.127h4.211a1.813 1.813 0 00-.208-.854 1.513 1.513 0 00-.568-.595 1.592 1.592 0 00-.84-.217c-.342 0-.642.083-.9.249a1.706 1.706 0 00-.605.646 1.857 1.857 0 00-.217.873v.983c0 .412.075.766.226 1.062.151.292.362.517.632.674.271.154.588.231.951.231.244 0 .464-.034.661-.102.197-.071.367-.174.512-.309a1.29 1.29 0 00.328-.503l1.56.175a2.424 2.424 0 01-.563 1.08 2.74 2.74 0 01-1.053.711c-.427.166-.917.249-1.468.249zm6.238-4.293V251h-1.671v-7.091h1.598v1.205h.083c.163-.397.423-.712.78-.946.36-.234.805-.351 1.334-.351.489 0 .916.104 1.279.314.366.209.649.512.849.909.203.397.303.879.3 1.445V251h-1.671v-4.256c0-.474-.123-.845-.369-1.113-.243-.268-.58-.402-1.011-.402-.293 0-.553.065-.78.194-.225.126-.402.31-.531.55-.127.24-.19.531-.19.872zm9.792-2.936v1.293h-4.076v-1.293h4.076zm-3.07-1.699h1.671v6.657c0 .225.034.397.102.517.07.117.163.197.277.24.114.043.24.065.378.065.105 0 .2-.008.286-.023.09-.016.157-.029.204-.042l.281 1.307a3.705 3.705 0 01-.383.101 3.113 3.113 0 01-.6.065 2.735 2.735 0 01-1.131-.189 1.758 1.758 0 01-.799-.656c-.194-.295-.289-.665-.286-1.108v-6.934zm9.97 3.573l-1.523.167a1.23 1.23 0 00-.226-.434 1.117 1.117 0 00-.425-.328 1.546 1.546 0 00-.655-.125c-.348 0-.641.076-.878.226-.234.151-.349.347-.346.587a.613.613 0 00.226.503c.157.129.416.235.776.318l1.209.259c.671.145 1.17.374 1.496.688.329.314.496.725.499 1.232a1.923 1.923 0 01-.393 1.182c-.255.339-.611.603-1.066.794-.456.191-.979.286-1.57.286-.868 0-1.566-.181-2.096-.544-.529-.366-.844-.876-.946-1.528l1.63-.157c.074.32.231.561.471.725.24.163.552.244.937.244.397 0 .715-.081.955-.244.243-.164.365-.365.365-.605a.629.629 0 00-.235-.503c-.154-.133-.394-.234-.721-.305l-1.209-.254c-.68-.142-1.183-.38-1.51-.716-.326-.338-.487-.766-.484-1.283a1.819 1.819 0 01.355-1.136c.243-.323.58-.572 1.011-.747.434-.179.934-.268 1.5-.268.831 0 1.485.177 1.962.531.481.354.778.832.891 1.435z" fill="#5A50FA"/><path d="M298 131h97" stroke="#949495" stroke-width="1.5" stroke-linecap="round" stroke-dasharray="0.1 8"/><g filter="url(#filter1_d_314_78)"><rect x="393" y="57" width="546" height="106" rx="10" fill="#fff"/></g><g filter="url(#filter2_d_314_78)"><path d="M393 67c0-5.523 4.477-10 10-10h526c5.523 0 10 4.477 10 10v27H393V67z" fill="#5A50FA"/></g><rect x="413" y="114" width="117" height="29" rx="14.5" fill="#D2371E" fill-opacity=".15"/><path d="M428.933 133v-9.455h3.545c.726 0 1.336.127 1.828.379.496.252.87.606 1.122 1.062.255.452.383.98.383 1.583 0 .607-.129 1.133-.388 1.579a2.562 2.562 0 01-1.131 1.03c-.498.24-1.111.36-1.837.36h-2.525v-1.422h2.294c.425 0 .773-.059 1.043-.176.271-.12.471-.294.601-.521.132-.231.198-.514.198-.85 0-.335-.066-.621-.198-.858a1.266 1.266 0 00-.605-.545c-.271-.126-.62-.189-1.048-.189h-1.57V133h-1.712zm4.884-4.284l2.34 4.284h-1.911l-2.299-4.284h1.87zm3.497 4.284v-7.091h1.671V133h-1.671zm.84-8.097a.976.976 0 01-.683-.263.85.85 0 01-.287-.642c0-.252.096-.466.287-.642a.967.967 0 01.683-.268c.268 0 .495.09.683.268a.84.84 0 01.286.642.85.85 0 01-.286.642.966.966 0 01-.683.263zm8.154 2.88l-1.524.167a1.213 1.213 0 00-.226-.434 1.11 1.11 0 00-.425-.328 1.546 1.546 0 00-.655-.125c-.348 0-.64.076-.877.226-.234.151-.35.347-.346.587a.61.61 0 00.226.503c.157.129.415.235.775.318l1.21.259c.671.145 1.169.374 1.496.688.329.314.495.725.498 1.232a1.928 1.928 0 01-.392 1.182c-.256.339-.611.603-1.067.794-.455.191-.978.286-1.569.286-.868 0-1.567-.181-2.096-.544-.53-.366-.845-.876-.947-1.528l1.63-.157c.074.32.231.561.471.725.24.163.552.244.937.244.397 0 .716-.081.956-.244.243-.164.364-.365.364-.605a.629.629 0 00-.235-.503c-.154-.133-.394-.234-.72-.305l-1.21-.254c-.68-.142-1.183-.38-1.509-.716-.327-.338-.488-.766-.485-1.283a1.819 1.819 0 01.355-1.136c.244-.323.581-.572 1.011-.747.434-.179.935-.268 1.501-.268.831 0 1.485.177 1.962.531.48.354.777.832.891 1.435zm3.054 2.992l-.005-2.018h.268l2.548-2.848h1.953l-3.135 3.49h-.346l-1.283 1.376zM447.838 133v-9.455h1.671V133h-1.671zm4.45 0l-2.308-3.227 1.127-1.177 3.18 4.404h-1.999zm4.066 2.659a3.38 3.38 0 01-.632-.055 2.363 2.363 0 01-.457-.12l.388-1.302c.243.071.46.104.651.101a.8.8 0 00.503-.18c.148-.114.272-.304.374-.572l.143-.383-2.572-7.239h1.773l1.634 5.355h.074l1.639-5.355h1.778l-2.84 7.95a3.175 3.175 0 01-.526.965c-.218.27-.486.477-.803.618-.314.145-.69.217-1.127.217zm12.77-2.521c-.708 0-1.316-.155-1.824-.466a3.112 3.112 0 01-1.168-1.288c-.271-.551-.406-1.185-.406-1.902 0-.72.138-1.355.415-1.906a3.102 3.102 0 011.173-1.293c.508-.311 1.108-.466 1.8-.466.576 0 1.085.106 1.528.318.447.21.802.507 1.067.891.264.382.415.828.452 1.339h-1.597a1.53 1.53 0 00-.462-.854c-.24-.231-.561-.346-.965-.346-.341 0-.641.092-.9.277-.258.181-.46.443-.605.785-.141.341-.212.751-.212 1.228 0 .483.071.898.212 1.246.142.345.341.611.596.799.259.184.562.277.909.277.247 0 .467-.047.661-.139.197-.095.361-.232.494-.411.132-.178.223-.395.272-.651h1.597c-.04.502-.188.947-.443 1.335a2.62 2.62 0 01-1.043.904c-.44.216-.957.323-1.551.323zm7.503 0c-.693 0-1.293-.152-1.801-.457a3.095 3.095 0 01-1.182-1.278c-.277-.548-.415-1.188-.415-1.921 0-.732.138-1.374.415-1.925a3.09 3.09 0 011.182-1.283c.508-.305 1.108-.457 1.801-.457.692 0 1.292.152 1.8.457.508.304.9.732 1.177 1.283.28.551.42 1.193.42 1.925 0 .733-.14 1.373-.42 1.921a3.064 3.064 0 01-1.177 1.278c-.508.305-1.108.457-1.8.457zm.009-1.338c.375 0 .689-.103.942-.31.252-.209.44-.489.563-.84a3.45 3.45 0 00.189-1.172 3.47 3.47 0 00-.189-1.178 1.86 1.86 0 00-.563-.844c-.253-.21-.567-.314-.942-.314-.385 0-.705.104-.96.314-.253.209-.442.49-.568.844a3.547 3.547 0 00-.185 1.178c0 .43.062.821.185 1.172.126.351.315.631.568.84.255.207.575.31.96.31zm9.326-1.782v-4.109h1.671V133h-1.62v-1.26h-.074c-.16.397-.423.721-.789.974-.363.252-.811.378-1.344.378-.464 0-.875-.103-1.232-.309a2.146 2.146 0 01-.831-.909c-.2-.401-.3-.884-.3-1.45v-4.515h1.671v4.256c0 .45.123.807.369 1.072.246.264.569.397.97.397a1.521 1.521 0 001.283-.716c.151-.24.226-.54.226-.9zm5.061-1.173V133h-1.671v-7.091h1.597v1.205h.083c.163-.397.423-.712.78-.946.36-.234.805-.351 1.335-.351.489 0 .915.104 1.278.314.367.209.65.512.85.909.203.397.303.879.3 1.445V133h-1.671v-4.256c0-.474-.123-.845-.37-1.113-.243-.268-.58-.402-1.011-.402-.292 0-.552.065-.78.194-.225.126-.401.31-.531.55-.126.24-.189.531-.189.872zm9.792-2.936v1.293h-4.077v-1.293h4.077zm-3.07-1.699h1.671v6.657c0 .225.034.397.101.517a.548.548 0 00.277.24c.114.043.24.065.379.065.104 0 .2-.008.286-.023.089-.016.157-.029.203-.042l.282 1.307a3.705 3.705 0 01-.383.101 3.125 3.125 0 01-.601.065 2.741 2.741 0 01-1.131-.189 1.76 1.76 0 01-.798-.656c-.194-.295-.289-.665-.286-1.108v-6.934zm4.467 8.79v-7.091h1.621v1.182h.073c.13-.409.351-.725.665-.946a1.828 1.828 0 011.085-.337c.092 0 .196.004.309.013.117.007.214.017.291.033v1.537a1.765 1.765 0 00-.337-.065 3.183 3.183 0 00-.438-.032c-.305 0-.579.066-.822.199-.24.129-.429.309-.568.54-.138.23-.208.497-.208.798V133h-1.671zm6.409 2.659c-.228 0-.439-.018-.632-.055a2.343 2.343 0 01-.457-.12l.387-1.302c.243.071.46.104.651.101a.795.795 0 00.503-.18c.148-.114.273-.304.374-.572l.143-.383-2.571-7.239h1.773l1.634 5.355h.074l1.639-5.355h1.777l-2.839 7.95a3.197 3.197 0 01-.526.965c-.219.27-.487.477-.804.618-.313.145-.689.217-1.126.217z" fill="#D2371E"/><rect x="650" y="114" width="105" height="29" rx="14.5" fill="#14AA5F" fill-opacity=".15"/><path d="M659.933 133v-9.455h1.712v8.019h4.164V133h-5.876zm9.329.143a2.96 2.96 0 01-1.214-.24 1.978 1.978 0 01-.849-.72c-.206-.317-.309-.708-.309-1.173 0-.4.073-.731.221-.992.148-.262.349-.471.605-.628.255-.157.543-.276.863-.356a7.035 7.035 0 011.002-.18c.415-.043.752-.081 1.011-.115.258-.037.446-.092.563-.166.12-.077.18-.196.18-.356v-.027c0-.348-.103-.617-.309-.808-.206-.191-.503-.286-.891-.286-.409 0-.734.089-.974.267-.237.179-.397.39-.48.633l-1.561-.222a2.49 2.49 0 01.61-1.08 2.659 2.659 0 011.038-.656c.41-.147.862-.221 1.358-.221.341 0 .681.04 1.02.12.338.08.648.212.928.397.28.181.505.429.674.743.172.314.258.706.258 1.177V133H671.4v-.974h-.056a2.016 2.016 0 01-1.117.965 2.785 2.785 0 01-.965.152zm.434-1.228c.336 0 .627-.066.873-.198.246-.136.435-.314.568-.536.135-.221.203-.463.203-.725v-.835a.79.79 0 01-.268.12 3.877 3.877 0 01-.415.097c-.154.027-.307.052-.457.074l-.393.055a2.924 2.924 0 00-.669.166 1.11 1.11 0 00-.466.323.791.791 0 00-.171.527c0 .307.112.54.337.697.224.157.511.235.858.235zm4.991 1.085v-7.091h1.62v1.182h.074c.129-.409.351-.725.665-.946a1.826 1.826 0 011.085-.337c.092 0 .195.004.309.013.117.007.214.017.291.033v1.537a1.765 1.765 0 00-.337-.065 3.186 3.186 0 00-.439-.032c-.304 0-.578.066-.821.199a1.44 1.44 0 00-.568.54c-.139.23-.208.497-.208.798V133h-1.671zm7.946 2.807c-.6 0-1.116-.082-1.547-.245-.43-.16-.777-.375-1.038-.646a2.23 2.23 0 01-.545-.9l1.505-.365c.068.138.166.275.295.411.13.138.304.252.522.341.222.093.5.139.836.139.474 0 .866-.116 1.177-.346.311-.228.466-.604.466-1.127v-1.343h-.083a2.362 2.362 0 01-.379.531 1.94 1.94 0 01-.651.457c-.267.123-.604.184-1.011.184a2.906 2.906 0 01-1.481-.383c-.441-.258-.791-.643-1.053-1.154-.258-.514-.388-1.157-.388-1.93 0-.778.13-1.435.388-1.971.262-.538.614-.946 1.057-1.223.443-.28.937-.42 1.482-.42.416 0 .757.071 1.025.212.271.139.486.306.646.503.16.194.282.377.365.55h.092v-1.173h1.648v7.206c0 .607-.144 1.108-.434 1.505a2.6 2.6 0 01-1.186.891c-.502.197-1.071.296-1.708.296zm.014-4.22c.354 0 .655-.086.905-.258.249-.173.438-.42.567-.743.13-.324.194-.711.194-1.164 0-.446-.064-.837-.194-1.172a1.676 1.676 0 00-.563-.781c-.246-.187-.549-.281-.909-.281-.373 0-.683.097-.933.291-.249.194-.437.46-.563.798a3.242 3.242 0 00-.189 1.145c0 .434.063.814.189 1.14.129.324.319.576.568.758.252.178.562.267.928.267zm8.166 1.551c-.711 0-1.325-.147-1.842-.443a2.996 2.996 0 01-1.186-1.265c-.277-.547-.416-1.192-.416-1.934 0-.729.139-1.369.416-1.92.28-.554.671-.985 1.172-1.293.502-.311 1.092-.466 1.769-.466.437 0 .849.071 1.237.212a2.81 2.81 0 011.034.646c.302.293.538.665.711 1.118.172.449.258.984.258 1.606v.513h-5.812v-1.127h4.21a1.8 1.8 0 00-.207-.854 1.513 1.513 0 00-.568-.595 1.592 1.592 0 00-.84-.217c-.342 0-.642.083-.901.249-.258.163-.46.378-.604.646a1.857 1.857 0 00-.217.873v.983c0 .412.075.766.226 1.062.151.292.362.517.632.674.271.154.588.231.951.231.244 0 .464-.034.661-.102.197-.071.367-.174.512-.309a1.29 1.29 0 00.328-.503l1.56.175a2.424 2.424 0 01-.563 1.08 2.74 2.74 0 01-1.053.711c-.427.166-.917.249-1.468.249zm9.832.005a2.96 2.96 0 01-1.214-.24 1.978 1.978 0 01-.849-.72c-.207-.317-.31-.708-.31-1.173 0-.4.074-.731.222-.992.148-.262.349-.471.605-.628.255-.157.543-.276.863-.356a7.035 7.035 0 011.002-.18c.415-.043.752-.081 1.011-.115.258-.037.446-.092.563-.166.12-.077.18-.196.18-.356v-.027c0-.348-.103-.617-.309-.808-.206-.191-.503-.286-.891-.286-.41 0-.734.089-.974.267-.237.179-.397.39-.48.633l-1.561-.222a2.48 2.48 0 01.61-1.08 2.659 2.659 0 011.038-.656c.41-.147.862-.221 1.358-.221.341 0 .681.04 1.02.12.338.08.648.212.928.397.28.181.504.429.674.743.172.314.258.706.258 1.177V133h-1.606v-.974h-.056a2.016 2.016 0 01-1.117.965 2.785 2.785 0 01-.965.152zm.434-1.228c.336 0 .626-.066.873-.198.246-.136.435-.314.568-.536.135-.221.203-.463.203-.725v-.835a.8.8 0 01-.268.12 3.842 3.842 0 01-.416.097c-.153.027-.306.052-.457.074l-.392.055a2.924 2.924 0 00-.669.166 1.12 1.12 0 00-.467.323.79.79 0 00-.17.527c0 .307.112.54.337.697.224.157.51.235.858.235zM706.07 133v-7.091h1.597v1.205h.083c.148-.406.392-.723.734-.951.342-.231.749-.346 1.223-.346.481 0 .885.117 1.215.351.332.23.566.546.701.946h.074c.157-.394.422-.708.794-.942.376-.237.82-.355 1.334-.355.653 0 1.185.206 1.598.618.412.413.618 1.014.618 1.805V133h-1.676v-4.501c0-.44-.117-.762-.35-.965a1.255 1.255 0 00-.859-.309c-.403 0-.719.126-.946.378-.225.25-.337.574-.337.974V133h-1.639v-4.57c0-.367-.111-.659-.333-.877-.218-.219-.504-.328-.858-.328-.24 0-.459.061-.656.184-.197.12-.354.291-.471.513a1.598 1.598 0 00-.175.766V133h-1.671zm14.76.138c-.693 0-1.293-.152-1.801-.457a3.095 3.095 0 01-1.182-1.278c-.277-.548-.415-1.188-.415-1.921 0-.732.138-1.374.415-1.925a3.09 3.09 0 011.182-1.283c.508-.305 1.108-.457 1.801-.457.692 0 1.292.152 1.8.457.508.304.9.732 1.177 1.283.28.551.42 1.193.42 1.925 0 .733-.14 1.373-.42 1.921a3.064 3.064 0 01-1.177 1.278c-.508.305-1.108.457-1.8.457zm.009-1.338c.375 0 .689-.103.942-.31.252-.209.44-.489.563-.84a3.45 3.45 0 00.189-1.172 3.47 3.47 0 00-.189-1.178 1.86 1.86 0 00-.563-.844c-.253-.21-.567-.314-.942-.314-.385 0-.705.104-.96.314-.253.209-.442.49-.568.844a3.547 3.547 0 00-.185 1.178c0 .43.062.821.185 1.172.126.351.315.631.568.84.255.207.575.31.96.31zm9.326-1.782v-4.109h1.671V133h-1.62v-1.26h-.074c-.16.397-.423.721-.789.974-.363.252-.811.378-1.344.378-.464 0-.875-.103-1.232-.309a2.146 2.146 0 01-.831-.909c-.2-.401-.3-.884-.3-1.45v-4.515h1.671v4.256c0 .45.123.807.369 1.072.246.264.57.397.97.397a1.521 1.521 0 001.283-.716c.151-.24.226-.54.226-.9zm5.061-1.173V133h-1.671v-7.091h1.597v1.205h.083c.163-.397.424-.712.781-.946.36-.234.804-.351 1.334-.351.489 0 .915.104 1.278.314.367.209.65.512.85.909.203.397.303.879.3 1.445V133h-1.671v-4.256c0-.474-.123-.845-.37-1.113-.243-.268-.58-.402-1.011-.402-.292 0-.552.065-.78.194-.224.126-.401.31-.531.55-.126.24-.189.531-.189.872zm9.792-2.936v1.293h-4.077v-1.293h4.077zm-3.07-1.699h1.671v6.657c0 .225.034.397.101.517a.552.552 0 00.277.24c.114.043.24.065.379.065.105 0 .2-.008.286-.023.089-.016.157-.029.203-.042l.282 1.307a3.705 3.705 0 01-.383.101 3.113 3.113 0 01-.6.065 2.735 2.735 0 01-1.131-.189 1.758 1.758 0 01-.799-.656c-.194-.295-.289-.665-.286-1.108v-6.934z" fill="#14AA5F"/><rect x="758" y="114" width="74" height="29" rx="14.5" fill="#14AA5F" fill-opacity=".15"/><path d="M769.922 133l-2.668-9.455h1.842l1.703 6.948h.088l1.819-6.948h1.676l1.823 6.953h.083l1.704-6.953h1.842L777.165 133h-1.689l-1.893-6.634h-.074L771.612 133h-1.69zm12.697-4.155V133h-1.671v-9.455h1.634v3.569h.083c.166-.4.423-.716.771-.946.351-.234.797-.351 1.339-.351.492 0 .921.103 1.288.309.366.206.649.508.849.905.203.397.305.882.305 1.454V133h-1.671v-4.256c0-.477-.124-.848-.37-1.113-.243-.268-.585-.402-1.025-.402-.295 0-.56.065-.794.194a1.36 1.36 0 00-.544.55c-.13.24-.194.531-.194.872zM788.92 133v-7.091h1.671V133h-1.671zm.84-8.097a.978.978 0 01-.683-.263.85.85 0 01-.286-.642.84.84 0 01.286-.642.969.969 0 01.683-.268.96.96 0 01.684.268c.19.176.286.39.286.642a.853.853 0 01-.286.642.968.968 0 01-.684.263zm6.091 1.006v1.293h-4.077v-1.293h4.077zm-3.07-1.699h1.671v6.657c0 .225.034.397.101.517a.552.552 0 00.277.24c.114.043.24.065.379.065.105 0 .2-.008.286-.023.089-.016.157-.029.203-.042l.282 1.307a3.705 3.705 0 01-.383.101 3.113 3.113 0 01-.6.065 2.735 2.735 0 01-1.131-.189 1.758 1.758 0 01-.799-.656c-.194-.295-.289-.665-.286-1.108v-6.934zm7.53 8.928c-.711 0-1.325-.147-1.842-.443a2.996 2.996 0 01-1.186-1.265c-.277-.547-.416-1.192-.416-1.934 0-.729.139-1.369.416-1.92.28-.554.671-.985 1.173-1.293.501-.311 1.091-.466 1.768-.466.437 0 .849.071 1.237.212a2.81 2.81 0 011.034.646c.302.293.539.665.711 1.118.172.449.258.984.258 1.606v.513h-5.812v-1.127h4.21a1.8 1.8 0 00-.207-.854 1.513 1.513 0 00-.568-.595 1.592 1.592 0 00-.84-.217c-.342 0-.642.083-.9.249a1.706 1.706 0 00-.605.646 1.857 1.857 0 00-.217.873v.983c0 .412.075.766.226 1.062.151.292.362.517.632.674.271.154.588.231.951.231.244 0 .464-.034.661-.102.197-.071.367-.174.512-.309a1.29 1.29 0 00.328-.503l1.56.175a2.424 2.424 0 01-.563 1.08 2.74 2.74 0 01-1.053.711c-.427.166-.917.249-1.468.249zm6.238-9.593V133h-1.671v-9.455h1.671zm1.719 9.455v-7.091h1.671V133h-1.671zm.84-8.097a.976.976 0 01-.683-.263.85.85 0 01-.286-.642.84.84 0 01.286-.642.967.967 0 01.683-.268c.268 0 .496.09.683.268.191.176.287.39.287.642a.85.85 0 01-.287.642.964.964 0 01-.683.263zm8.154 2.88l-1.524.167a1.213 1.213 0 00-.226-.434 1.113 1.113 0 00-.424-.328 1.55 1.55 0 00-.656-.125c-.348 0-.64.076-.877.226-.234.151-.349.347-.346.587a.613.613 0 00.226.503c.157.129.415.235.775.318l1.21.259c.671.145 1.169.374 1.496.688.329.314.495.725.498 1.232a1.928 1.928 0 01-.392 1.182c-.256.339-.611.603-1.067.794-.455.191-.978.286-1.569.286-.868 0-1.567-.181-2.096-.544-.529-.366-.845-.876-.946-1.528l1.629-.157c.074.32.231.561.471.725.24.163.553.244.937.244.397 0 .716-.081.956-.244.243-.164.365-.365.365-.605a.63.63 0 00-.236-.503c-.154-.133-.394-.234-.72-.305l-1.21-.254c-.68-.142-1.183-.38-1.509-.716-.326-.338-.488-.766-.485-1.283a1.813 1.813 0 01.356-1.136c.243-.323.58-.572 1.011-.747.434-.179.934-.268 1.5-.268.831 0 1.485.177 1.962.531.48.354.777.832.891 1.435zm5.071-1.874v1.293h-4.076v-1.293h4.076zm-3.07-1.699h1.671v6.657c0 .225.034.397.102.517a.548.548 0 00.277.24c.114.043.24.065.378.065.105 0 .2-.008.287-.023.089-.016.157-.029.203-.042l.281 1.307a3.705 3.705 0 01-.383.101 3.113 3.113 0 01-.6.065 2.735 2.735 0 01-1.131-.189 1.763 1.763 0 01-.799-.656c-.194-.295-.289-.665-.286-1.108v-6.934z" fill="#14AA5F"/><rect x="537" y="114" width="106" height="29" rx="14.5" fill="#D2371E" fill-opacity=".15"/><path d="M552.933 133v-9.455h3.545c.726 0 1.336.127 1.828.379.496.252.87.606 1.122 1.062.255.452.383.98.383 1.583 0 .607-.129 1.133-.388 1.579a2.562 2.562 0 01-1.131 1.03c-.498.24-1.111.36-1.837.36h-2.525v-1.422h2.294c.425 0 .773-.059 1.043-.176.271-.12.471-.294.601-.521.132-.231.198-.514.198-.85 0-.335-.066-.621-.198-.858a1.266 1.266 0 00-.605-.545c-.271-.126-.62-.189-1.048-.189h-1.57V133h-1.712zm4.884-4.284l2.34 4.284h-1.911l-2.299-4.284h1.87zm3.497 4.284v-7.091h1.671V133h-1.671zm.84-8.097a.976.976 0 01-.683-.263.85.85 0 01-.287-.642c0-.252.096-.466.287-.642a.967.967 0 01.683-.268c.268 0 .495.09.683.268a.84.84 0 01.286.642.85.85 0 01-.286.642.966.966 0 01-.683.263zm8.154 2.88l-1.524.167a1.213 1.213 0 00-.226-.434 1.11 1.11 0 00-.425-.328 1.546 1.546 0 00-.655-.125c-.348 0-.64.076-.877.226-.234.151-.35.347-.346.587a.61.61 0 00.226.503c.157.129.415.235.775.318l1.21.259c.671.145 1.169.374 1.496.688.329.314.495.725.498 1.232a1.928 1.928 0 01-.392 1.182c-.256.339-.611.603-1.067.794-.455.191-.978.286-1.569.286-.868 0-1.567-.181-2.096-.544-.53-.366-.845-.876-.947-1.528l1.63-.157c.074.32.231.561.471.725.24.163.552.244.937.244.397 0 .716-.081.956-.244.243-.164.364-.365.364-.605a.629.629 0 00-.235-.503c-.154-.133-.394-.234-.72-.305l-1.21-.254c-.68-.142-1.183-.38-1.509-.716-.327-.338-.488-.766-.485-1.283a1.819 1.819 0 01.355-1.136c.244-.323.581-.572 1.011-.747.434-.179.935-.268 1.501-.268.831 0 1.485.177 1.962.531.48.354.777.832.891 1.435zm3.054 2.992l-.005-2.018h.268l2.548-2.848h1.953l-3.135 3.49h-.346l-1.283 1.376zM571.838 133v-9.455h1.671V133h-1.671zm4.45 0l-2.308-3.227 1.127-1.177 3.18 4.404h-1.999zm4.066 2.659a3.38 3.38 0 01-.632-.055 2.363 2.363 0 01-.457-.12l.388-1.302c.243.071.46.104.651.101a.8.8 0 00.503-.18c.148-.114.272-.304.374-.572l.143-.383-2.572-7.239h1.773l1.634 5.355h.074l1.639-5.355h1.778l-2.84 7.95a3.175 3.175 0 01-.526.965c-.218.27-.486.477-.803.618-.314.145-.69.217-1.127.217zm9.677-2.659v-7.091h1.671V133h-1.671zm.84-8.097a.974.974 0 01-.683-.263.85.85 0 01-.287-.642c0-.252.096-.466.287-.642a.965.965 0 01.683-.268c.267 0 .495.09.683.268a.84.84 0 01.286.642.85.85 0 01-.286.642.967.967 0 01-.683.263zm8.154 2.88l-1.524.167a1.213 1.213 0 00-.226-.434 1.117 1.117 0 00-.425-.328 1.546 1.546 0 00-.655-.125c-.348 0-.64.076-.877.226-.234.151-.35.347-.347.587a.614.614 0 00.227.503c.156.129.415.235.775.318l1.21.259c.671.145 1.169.374 1.495.688.33.314.496.725.499 1.232a1.928 1.928 0 01-.392 1.182c-.256.339-.611.603-1.067.794-.455.191-.979.286-1.569.286-.868 0-1.567-.181-2.096-.544-.53-.366-.845-.876-.947-1.528l1.63-.157c.074.32.231.561.471.725.24.163.552.244.937.244.397 0 .715-.081.956-.244.243-.164.364-.365.364-.605a.629.629 0 00-.235-.503c-.154-.133-.394-.234-.72-.305l-1.21-.254c-.68-.142-1.183-.38-1.509-.716-.327-.338-.488-.766-.485-1.283a1.819 1.819 0 01.355-1.136c.243-.323.58-.572 1.011-.747.434-.179.934-.268 1.501-.268.831 0 1.485.177 1.962.531.48.354.777.832.891 1.435zm7.134 0l-1.523.167a1.23 1.23 0 00-.226-.434 1.117 1.117 0 00-.425-.328 1.55 1.55 0 00-.656-.125c-.347 0-.64.076-.877.226-.234.151-.349.347-.346.587a.613.613 0 00.226.503c.157.129.416.235.776.318l1.209.259c.671.145 1.17.374 1.496.688.329.314.496.725.499 1.232a1.923 1.923 0 01-.393 1.182c-.255.339-.611.603-1.066.794-.456.191-.979.286-1.57.286-.868 0-1.566-.181-2.096-.544-.529-.366-.844-.876-.946-1.528l1.63-.157c.074.32.23.561.471.725.24.163.552.244.937.244.397 0 .715-.081.955-.244.243-.164.365-.365.365-.605a.629.629 0 00-.235-.503c-.154-.133-.394-.234-.721-.305l-1.209-.254c-.68-.142-1.183-.38-1.51-.716-.326-.338-.488-.766-.484-1.283a1.812 1.812 0 01.355-1.136c.243-.323.58-.572 1.011-.747.434-.179.934-.268 1.5-.268.831 0 1.485.177 1.962.531.48.354.777.832.891 1.435zm6.05 2.235v-4.109h1.671V133h-1.62v-1.26h-.074c-.16.397-.423.721-.789.974-.363.252-.811.378-1.344.378-.464 0-.875-.103-1.232-.309a2.146 2.146 0 01-.831-.909c-.2-.401-.3-.884-.3-1.45v-4.515h1.671v4.256c0 .45.123.807.369 1.072.246.264.57.397.97.397a1.521 1.521 0 001.283-.716c.151-.24.226-.54.226-.9zm6.529 3.12c-.711 0-1.325-.147-1.842-.443a2.996 2.996 0 01-1.186-1.265c-.277-.547-.416-1.192-.416-1.934 0-.729.139-1.369.416-1.92.28-.554.671-.985 1.172-1.293.502-.311 1.091-.466 1.768-.466.437 0 .85.071 1.238.212.39.139.735.354 1.034.646.301.293.538.665.711 1.118.172.449.258.984.258 1.606v.513h-5.812v-1.127h4.21a1.79 1.79 0 00-.208-.854 1.503 1.503 0 00-.567-.595 1.593 1.593 0 00-.841-.217c-.341 0-.641.083-.9.249-.258.163-.46.378-.604.646a1.857 1.857 0 00-.217.873v.983c0 .412.075.766.226 1.062.151.292.361.517.632.674.271.154.588.231.951.231.243 0 .463-.034.66-.102a1.48 1.48 0 00.513-.309c.144-.136.254-.303.328-.503l1.56.175a2.434 2.434 0 01-.563 1.08 2.74 2.74 0 01-1.053.711c-.428.166-.917.249-1.468.249zm4.567-.138v-7.091h1.62v1.182h.074c.129-.409.351-.725.665-.946a1.828 1.828 0 011.085-.337c.092 0 .195.004.309.013.117.007.214.017.291.033v1.537a1.765 1.765 0 00-.337-.065 3.186 3.186 0 00-.439-.032c-.304 0-.578.066-.821.199-.24.129-.43.309-.568.54-.139.23-.208.497-.208.798V133h-1.671z" fill="#D2371E"/><path d="M418.635 75.049a1.358 1.358 0 00-.587-1.014c-.341-.242-.786-.363-1.332-.363-.385 0-.715.058-.99.174a1.465 1.465 0 00-.631.472 1.145 1.145 0 00-.224.681c0 .212.048.396.144.552.1.156.234.288.403.398.169.106.356.195.562.268.205.073.412.135.621.184l.955.239c.384.09.754.21 1.108.363.358.152.678.344.96.576.285.233.51.513.676.84.166.329.249.713.249 1.154 0 .597-.153 1.122-.458 1.576-.305.45-.745.804-1.322 1.06-.574.251-1.268.377-2.083.377-.792 0-1.48-.123-2.064-.368-.58-.245-1.034-.603-1.362-1.074-.325-.47-.5-1.044-.527-1.72h1.815c.026.355.136.65.328.885s.443.41.751.527a2.97 2.97 0 001.044.174c.401 0 .752-.06 1.054-.179.305-.123.543-.292.716-.507.172-.219.26-.474.263-.766a.973.973 0 00-.233-.656 1.72 1.72 0 00-.642-.438 6.203 6.203 0 00-.954-.318l-1.159-.298c-.838-.215-1.501-.542-1.988-.98-.484-.44-.726-1.025-.726-1.754 0-.6.162-1.126.487-1.576.328-.451.774-.8 1.337-1.05.564-.251 1.202-.377 1.914-.377.723 0 1.356.126 1.9.378.546.248.976.595 1.287 1.039.312.44.472.948.482 1.521h-1.774zm6.809 7.532c-.762 0-1.417-.167-1.963-.502a3.35 3.35 0 01-1.258-1.387c-.292-.593-.438-1.276-.438-2.048 0-.776.149-1.46.448-2.054a3.335 3.335 0 011.263-1.392c.546-.335 1.193-.502 1.938-.502.62 0 1.169.114 1.646.343.481.225.863.545 1.148.96.286.41.448.891.488 1.441h-1.72a1.647 1.647 0 00-.498-.92c-.258-.248-.604-.372-1.039-.372-.368 0-.691.1-.969.298-.279.196-.496.477-.651.845-.153.368-.229.809-.229 1.323 0 .52.076.967.229 1.342.152.371.366.658.641.86.278.199.605.298.979.298.265 0 .502-.05.711-.149.212-.103.39-.25.532-.442.143-.192.241-.426.294-.701h1.72a2.99 2.99 0 01-.478 1.436c-.275.415-.649.74-1.123.975-.474.232-1.031.348-1.671.348zm8.13 0c-.765 0-1.427-.16-1.983-.477a3.228 3.228 0 01-1.278-1.362c-.298-.59-.448-1.285-.448-2.084 0-.785.15-1.475.448-2.068a3.375 3.375 0 011.263-1.392c.54-.335 1.175-.502 1.904-.502.47 0 .915.076 1.332.229.421.149.792.38 1.114.696.325.315.58.716.765 1.203.186.484.279 1.06.279 1.73v.552h-6.259v-1.213h4.534a1.942 1.942 0 00-.224-.92 1.628 1.628 0 00-.612-.641 1.716 1.716 0 00-.904-.234c-.368 0-.691.09-.97.269a1.853 1.853 0 00-.651.695c-.153.285-.23.599-.234.94v1.06c0 .443.081.824.244 1.142.162.315.389.557.681.726.292.166.633.249 1.024.249.262 0 .499-.037.711-.11.212-.076.396-.187.552-.332a1.39 1.39 0 00.353-.542l1.68.189a2.622 2.622 0 01-.606 1.163 2.957 2.957 0 01-1.134.766c-.461.178-.988.268-1.581.268zm6.718-4.624v4.475h-1.8v-7.636h1.721v1.297h.089c.176-.428.456-.767.84-1.02.388-.251.867-.377 1.437-.377.527 0 .986.113 1.377.338.395.225.699.552.915.98.219.427.326.946.323 1.556v4.862h-1.8v-4.584c0-.51-.132-.91-.397-1.198-.262-.288-.625-.433-1.089-.433-.315 0-.595.07-.84.21a1.446 1.446 0 00-.572.59c-.136.26-.204.573-.204.94zm8.929 4.629a3.18 3.18 0 01-1.307-.259 2.13 2.13 0 01-.915-.775c-.222-.342-.333-.763-.333-1.263 0-.43.079-.787.238-1.069.159-.282.376-.507.652-.676a3.29 3.29 0 01.929-.383 7.57 7.57 0 011.079-.194c.448-.046.81-.088 1.089-.124.278-.04.48-.1.606-.179.13-.083.194-.21.194-.383v-.03c0-.374-.111-.664-.333-.87-.222-.205-.542-.308-.959-.308-.441 0-.791.096-1.049.289-.256.192-.428.419-.517.68l-1.681-.238c.133-.464.352-.852.656-1.163.305-.315.678-.55 1.119-.706a4.28 4.28 0 011.462-.239c.368 0 .734.043 1.098.13.365.086.698.228 1 .427.301.195.543.462.726.8.185.338.278.76.278 1.268v5.11h-1.73v-1.048h-.06a2.186 2.186 0 01-.462.596c-.196.183-.443.33-.741.443-.295.11-.641.164-1.039.164zm.467-1.323c.362 0 .675-.07.94-.213.265-.146.469-.338.612-.577.145-.239.218-.499.218-.78v-.9a.84.84 0 01-.288.129c-.133.04-.282.074-.448.104-.165.03-.329.057-.492.08l-.422.06a3.13 3.13 0 00-.721.178c-.212.083-.38.2-.502.349-.123.145-.184.334-.184.566 0 .332.121.582.363.75.242.17.55.254.924.254zm5.375 1.169v-7.636h1.745v1.272h.079c.139-.44.378-.78.716-1.019a1.972 1.972 0 011.168-.363c.1 0 .211.005.334.015.126.007.23.018.313.035v1.655a1.888 1.888 0 00-.363-.07 3.347 3.347 0 00-.472-.034c-.329 0-.624.071-.885.214-.259.139-.463.333-.612.581a1.64 1.64 0 00-.224.86v4.49h-1.799zm5.55 0v-7.636h1.8v7.636h-1.8zm.905-8.72c-.285 0-.53-.095-.736-.284a.915.915 0 01-.308-.69c0-.273.103-.503.308-.692.206-.192.451-.288.736-.288.289 0 .534.096.736.288.206.19.308.42.308.691a.912.912 0 01-.308.691 1.038 1.038 0 01-.736.284zm6.077 8.869c-.746 0-1.392-.164-1.939-.492a3.344 3.344 0 01-1.273-1.377c-.298-.59-.447-1.28-.447-2.069 0-.788.149-1.48.447-2.073a3.337 3.337 0 011.273-1.382c.547-.328 1.193-.492 1.939-.492s1.392.164 1.939.492c.547.328.969.789 1.267 1.382.302.594.453 1.285.453 2.074 0 .788-.151 1.478-.453 2.068-.298.59-.72 1.049-1.267 1.377-.547.328-1.193.492-1.939.492zm.01-1.442c.404 0 .742-.11 1.014-.333.272-.225.474-.527.606-.905.136-.378.204-.798.204-1.263 0-.467-.068-.89-.204-1.267a2 2 0 00-.606-.91c-.272-.225-.61-.338-1.014-.338-.415 0-.759.113-1.034.338a2.041 2.041 0 00-.612.91c-.132.378-.199.8-.199 1.267 0 .465.067.885.199 1.263.136.378.34.68.612.905.275.222.619.333 1.034.333zm13.278-4.539v1.482h-4.584V76.6h4.584zm14.16-.915h-1.859a2.304 2.304 0 00-.294-.81 2.173 2.173 0 00-1.258-.98 2.826 2.826 0 00-.87-.129c-.553 0-1.044.14-1.471.418-.428.275-.762.68-1.004 1.213-.242.53-.363 1.178-.363 1.944 0 .779.121 1.435.363 1.969.245.53.58.931 1.004 1.203.427.268.916.402 1.466.402.305 0 .59-.04.856-.119.268-.083.508-.204.72-.363.216-.159.396-.354.542-.586.149-.232.252-.498.309-.796l1.859.01c-.07.484-.22.938-.452 1.362a4.026 4.026 0 01-.9 1.124 4.163 4.163 0 01-1.303.756 4.86 4.86 0 01-1.655.268c-.895 0-1.694-.207-2.397-.621-.702-.415-1.256-1.013-1.66-1.795-.405-.782-.607-1.72-.607-2.814 0-1.097.204-2.035.612-2.814.407-.782.963-1.38 1.665-1.795.703-.414 1.498-.621 2.387-.621.566 0 1.093.08 1.581.238.487.16.921.393 1.302.701.381.305.694.68.94 1.124.248.44.411.945.487 1.511zm3.409 2.272v4.475h-1.8V72.25h1.76v3.843h.09c.179-.43.456-.77.83-1.02.378-.251.859-.377 1.442-.377.53 0 .993.111 1.387.333.394.222.699.547.915.975.219.427.328.95.328 1.566v4.862h-1.8v-4.584c0-.514-.132-.913-.398-1.198-.261-.288-.629-.433-1.103-.433-.318 0-.603.07-.855.21a1.462 1.462 0 00-.587.59c-.139.26-.209.573-.209.94zm10.167 4.624c-.766 0-1.427-.16-1.984-.477a3.232 3.232 0 01-1.277-1.362c-.299-.59-.448-1.285-.448-2.084 0-.785.149-1.475.448-2.068a3.375 3.375 0 011.263-1.392c.54-.335 1.174-.502 1.904-.502.47 0 .914.076 1.332.229.421.149.792.38 1.114.696.324.315.58.716.765 1.203.186.484.279 1.06.279 1.73v.552h-6.26v-1.213h4.535a1.942 1.942 0 00-.224-.92 1.628 1.628 0 00-.612-.641 1.716 1.716 0 00-.904-.234c-.368 0-.692.09-.97.269a1.853 1.853 0 00-.651.695 1.993 1.993 0 00-.234.94v1.06c0 .443.081.824.244 1.142.162.315.389.557.681.726.291.166.633.249 1.024.249.262 0 .499-.037.711-.11.212-.076.396-.187.552-.332a1.39 1.39 0 00.353-.542l1.68.189a2.622 2.622 0 01-.606 1.163 2.957 2.957 0 01-1.134.766c-.461.178-.988.268-1.581.268zm8.249 0c-.762 0-1.417-.167-1.964-.502a3.355 3.355 0 01-1.257-1.387c-.292-.593-.438-1.276-.438-2.048 0-.776.149-1.46.448-2.054a3.339 3.339 0 011.262-1.392c.547-.335 1.194-.502 1.939-.502.62 0 1.169.114 1.646.343.48.225.863.545 1.148.96.285.41.448.891.488 1.441h-1.721a1.64 1.64 0 00-.497-.92c-.258-.248-.605-.372-1.039-.372-.368 0-.691.1-.969.298-.279.196-.496.477-.652.845-.152.368-.228.809-.228 1.323 0 .52.076.967.228 1.342.153.371.367.658.642.86.278.199.605.298.979.298.265 0 .502-.05.711-.149.212-.103.39-.25.532-.442.143-.192.24-.426.293-.701h1.721a3.01 3.01 0 01-.478 1.436c-.275.415-.649.74-1.123.975-.474.232-1.031.348-1.671.348zm6.39-2.546l-.005-2.172h.288l2.745-3.067h2.103l-3.376 3.758h-.373l-1.382 1.481zm-1.641 2.397V72.25h1.8v10.182h-1.8zm4.793 0l-2.486-3.475 1.213-1.268 3.426 4.743h-2.153zm9.982.149c-.763 0-1.417-.167-1.964-.502a3.35 3.35 0 01-1.258-1.387c-.292-.593-.437-1.276-.437-2.048 0-.776.149-1.46.447-2.054a3.335 3.335 0 011.263-1.392c.547-.335 1.193-.502 1.939-.502.62 0 1.168.114 1.645.343a2.81 2.81 0 011.149.96c.285.41.447.891.487 1.441h-1.72a1.652 1.652 0 00-.497-.92c-.259-.248-.605-.372-1.039-.372-.368 0-.691.1-.97.298-.278.196-.495.477-.651.845-.153.368-.229.809-.229 1.323 0 .52.076.967.229 1.342.152.371.366.658.641.86.279.199.605.298.98.298.265 0 .502-.05.711-.149.212-.103.389-.25.531-.442.143-.192.241-.426.294-.701h1.72a2.999 2.999 0 01-.477 1.436c-.275.415-.65.74-1.124.975-.474.232-1.031.348-1.67.348zm6.946.005a3.18 3.18 0 01-1.307-.259 2.13 2.13 0 01-.915-.775c-.222-.342-.333-.763-.333-1.263 0-.43.079-.787.238-1.069.16-.282.377-.507.652-.676a3.29 3.29 0 01.929-.383 7.57 7.57 0 011.079-.194c.448-.046.811-.088 1.089-.124.278-.04.481-.1.607-.179.129-.083.193-.21.193-.383v-.03c0-.374-.111-.664-.333-.87-.222-.205-.542-.308-.959-.308-.441 0-.791.096-1.049.289-.255.192-.428.419-.517.68l-1.681-.238c.133-.464.352-.852.657-1.163.305-.315.677-.55 1.118-.706a4.28 4.28 0 011.462-.239c.368 0 .734.043 1.099.13a3.1 3.1 0 01.999.427c.302.195.543.462.726.8.185.338.278.76.278 1.268v5.11h-1.73v-1.048h-.06a2.186 2.186 0 01-.462.596c-.195.183-.442.33-.741.443-.295.11-.641.164-1.039.164zm.468-1.323c.361 0 .674-.07.939-.213.265-.146.469-.338.612-.577.146-.239.218-.499.218-.78v-.9a.84.84 0 01-.288.129c-.132.04-.282.074-.447.104-.166.03-.33.057-.493.08l-.422.06a3.13 3.13 0 00-.721.178c-.212.083-.38.2-.502.349-.123.145-.184.334-.184.566 0 .332.121.582.363.75.242.17.55.254.925.254zm5.374 1.169v-7.636h1.745v1.272h.079c.14-.44.378-.78.716-1.019a1.973 1.973 0 011.169-.363c.099 0 .21.005.333.015.126.007.23.018.313.035v1.655a1.888 1.888 0 00-.363-.07 3.336 3.336 0 00-.472-.034c-.328 0-.623.071-.885.214-.259.139-.463.333-.612.581a1.64 1.64 0 00-.223.86v4.49h-1.8zm8.07.134a2.89 2.89 0 01-1.611-.462c-.474-.308-.848-.756-1.123-1.343-.275-.586-.413-1.299-.413-2.137 0-.849.139-1.565.418-2.148.281-.587.661-1.03 1.138-1.328a2.925 2.925 0 011.596-.452c.447 0 .815.076 1.104.229.288.149.517.33.686.542.169.208.3.406.392.591h.075V72.25h1.805v10.182h-1.77v-1.203h-.11a3.062 3.062 0 01-.402.591 2.222 2.222 0 01-.696.527c-.289.146-.652.219-1.089.219zm.502-1.477c.381 0 .706-.102.975-.308.268-.209.472-.499.611-.87s.209-.803.209-1.297c0-.494-.07-.923-.209-1.288-.136-.365-.338-.648-.606-.85-.266-.202-.592-.303-.98-.303-.401 0-.736.104-1.004.313a1.894 1.894 0 00-.607.865 3.628 3.628 0 00-.204 1.263c0 .477.068.903.204 1.277a2 2 0 00.612.88c.272.212.605.319.999.319zm12.768-6.293v1.391h-4.39v-1.391h4.39zm-3.306-1.83h1.8v7.169c0 .242.036.427.109.557a.593.593 0 00.299.258c.122.047.258.07.407.07.113 0 .216-.008.309-.025.096-.017.169-.032.218-.045l.304 1.407c-.097.033-.234.07-.413.11-.176.04-.391.063-.646.07a2.933 2.933 0 01-1.218-.205 1.89 1.89 0 01-.86-.706c-.209-.318-.312-.716-.309-1.193v-7.467zm4.812 9.466v-7.636h1.745v1.272h.079c.139-.44.378-.78.716-1.019a1.97 1.97 0 011.168-.363c.1 0 .211.005.333.015.126.007.231.018.314.035v1.655a1.92 1.92 0 00-.363-.07 3.35 3.35 0 00-.473-.034c-.328 0-.623.071-.885.214-.258.139-.462.333-.611.581a1.64 1.64 0 00-.224.86v4.49h-1.799zm7.611.154a3.18 3.18 0 01-1.307-.259 2.13 2.13 0 01-.915-.775c-.222-.342-.333-.763-.333-1.263 0-.43.079-.787.238-1.069.159-.282.376-.507.652-.676a3.29 3.29 0 01.929-.383 7.57 7.57 0 011.079-.194c.448-.046.81-.088 1.089-.124.278-.04.48-.1.606-.179.13-.083.194-.21.194-.383v-.03c0-.374-.111-.664-.333-.87-.222-.205-.542-.308-.959-.308-.441 0-.791.096-1.049.289-.256.192-.428.419-.517.68l-1.681-.238c.133-.464.352-.852.656-1.163.305-.315.678-.55 1.119-.706a4.28 4.28 0 011.462-.239c.368 0 .734.043 1.098.13.365.086.698.228 1 .427.301.195.543.462.726.8.185.338.278.76.278 1.268v5.11h-1.73v-1.048h-.06a2.186 2.186 0 01-.462.596c-.196.183-.443.33-.741.443-.295.11-.641.164-1.039.164zm.467-1.323c.362 0 .675-.07.94-.213.265-.146.469-.338.612-.577.145-.239.218-.499.218-.78v-.9a.84.84 0 01-.288.129c-.133.04-.282.074-.448.104-.165.03-.329.057-.492.08l-.422.06a3.13 3.13 0 00-.721.178c-.212.083-.38.2-.502.349-.123.145-.184.334-.184.566 0 .332.121.582.363.75.242.17.55.254.924.254zm7.174-3.306v4.475h-1.799v-7.636h1.72v1.297h.089c.176-.428.456-.767.841-1.02.387-.251.866-.377 1.436-.377.527 0 .986.113 1.377.338.395.225.7.552.915.98.219.427.327.946.323 1.556v4.862h-1.799v-4.584c0-.51-.133-.91-.398-1.198-.262-.288-.625-.433-1.089-.433-.315 0-.595.07-.84.21a1.446 1.446 0 00-.572.59c-.136.26-.204.573-.204.94zm12.767-1.143l-1.64.179a1.329 1.329 0 00-.244-.467 1.204 1.204 0 00-.457-.353 1.667 1.667 0 00-.706-.135c-.375 0-.69.082-.945.244-.252.162-.376.373-.373.631a.661.661 0 00.244.542c.169.14.447.254.835.343l1.303.279c.722.156 1.259.402 1.611.74.354.339.533.781.536 1.328-.003.48-.144.905-.422 1.273-.275.364-.658.65-1.149.855-.49.205-1.054.308-1.69.308-.935 0-1.687-.196-2.257-.587-.57-.394-.91-.943-1.019-1.645l1.755-.17c.079.345.248.606.507.781.258.176.595.264 1.009.264.428 0 .771-.088 1.029-.264.262-.175.393-.392.393-.651 0-.219-.084-.4-.254-.542-.165-.142-.424-.252-.775-.328l-1.303-.273c-.732-.153-1.274-.41-1.625-.771-.352-.365-.526-.825-.522-1.382-.004-.47.124-.879.382-1.223.262-.348.625-.617 1.089-.806.468-.192 1.006-.288 1.616-.288.895 0 1.599.19 2.113.572.517.38.837.896.959 1.546zm3.846 5.772c-.484 0-.92-.086-1.308-.259a2.132 2.132 0 01-.914-.775c-.222-.342-.333-.763-.333-1.263 0-.43.079-.787.238-1.069.159-.282.376-.507.651-.676.276-.169.585-.297.93-.383a7.57 7.57 0 011.079-.194c.447-.046.81-.088 1.089-.124.278-.04.48-.1.606-.179.13-.083.194-.21.194-.383v-.03c0-.374-.111-.664-.333-.87-.222-.205-.542-.308-.959-.308-.441 0-.791.096-1.049.289-.256.192-.428.419-.517.68l-1.681-.238c.133-.464.351-.852.656-1.163.305-.315.678-.55 1.119-.706a4.28 4.28 0 011.462-.239c.368 0 .734.043 1.098.13.365.086.698.228 1 .427.301.195.543.462.726.8.185.338.278.76.278 1.268v5.11h-1.73v-1.048h-.06a2.186 2.186 0 01-.462.596c-.196.183-.443.33-.741.443-.295.11-.641.164-1.039.164zm.467-1.323c.362 0 .675-.07.94-.213.265-.146.469-.338.611-.577.146-.239.219-.499.219-.78v-.9a.84.84 0 01-.288.129c-.133.04-.282.074-.448.104-.165.03-.329.057-.492.08l-.422.06a3.13 3.13 0 00-.721.178c-.212.083-.38.2-.502.349-.123.145-.184.334-.184.566 0 .332.121.582.363.75.242.17.55.254.924.254zm8.706 1.318c-.763 0-1.417-.167-1.964-.502a3.35 3.35 0 01-1.258-1.387c-.292-.593-.438-1.276-.438-2.048 0-.776.15-1.46.448-2.054a3.335 3.335 0 011.263-1.392c.547-.335 1.193-.502 1.939-.502.619 0 1.168.114 1.645.343a2.81 2.81 0 011.149.96c.285.41.447.891.487 1.441h-1.72a1.652 1.652 0 00-.497-.92c-.259-.248-.605-.372-1.04-.372-.367 0-.691.1-.969.298-.278.196-.496.477-.651.845-.153.368-.229.809-.229 1.323 0 .52.076.967.229 1.342.152.371.366.658.641.86.278.199.605.298.979.298.266 0 .503-.05.711-.149.213-.103.39-.25.532-.442.143-.192.241-.426.294-.701h1.72a2.999 2.999 0 01-.477 1.436c-.276.415-.65.74-1.124.975-.474.232-1.031.348-1.67.348zm8.562-7.785v1.391h-4.39v-1.391h4.39zm-3.306-1.83h1.799v7.169c0 .242.037.427.11.557a.591.591 0 00.298.258c.123.047.259.07.408.07.113 0 .215-.008.308-.025.096-.017.169-.032.219-.045l.303 1.407a4.01 4.01 0 01-.413.11c-.175.04-.391.063-.646.07a2.933 2.933 0 01-1.218-.205 1.895 1.895 0 01-.86-.706c-.209-.318-.312-.716-.308-1.193v-7.467zm4.811 9.466v-7.636h1.8v7.636h-1.8zm.905-8.72c-.285 0-.53-.095-.736-.284a.915.915 0 01-.308-.69c0-.273.103-.503.308-.692.206-.192.451-.288.736-.288.288 0 .533.096.736.288.205.19.308.42.308.691a.915.915 0 01-.308.691 1.041 1.041 0 01-.736.284zm6.076 8.869c-.745 0-1.392-.164-1.939-.492a3.342 3.342 0 01-1.272-1.377c-.299-.59-.448-1.28-.448-2.069 0-.788.149-1.48.448-2.073a3.335 3.335 0 011.272-1.382c.547-.328 1.194-.492 1.939-.492.746 0 1.392.164 1.939.492a3.3 3.3 0 011.268 1.382c.302.594.452 1.285.452 2.074 0 .788-.15 1.478-.452 2.068a3.307 3.307 0 01-1.268 1.377c-.547.328-1.193.492-1.939.492zm.01-1.442c.405 0 .743-.11 1.015-.333.271-.225.473-.527.606-.905.136-.378.204-.798.204-1.263 0-.467-.068-.89-.204-1.267a2.015 2.015 0 00-.606-.91c-.272-.225-.61-.338-1.015-.338-.414 0-.759.113-1.034.338a2.04 2.04 0 00-.611.91 3.8 3.8 0 00-.199 1.267c0 .465.066.885.199 1.263.136.378.339.68.611.905.275.222.62.333 1.034.333zm6.977-3.182v4.475h-1.8v-7.636h1.72v1.297h.09c.175-.428.455-.767.84-1.02.388-.251.867-.377 1.437-.377.527 0 .986.113 1.377.338.394.225.699.552.915.98.218.427.326.946.323 1.556v4.862h-1.8v-4.584c0-.51-.133-.91-.398-1.198-.262-.288-.625-.433-1.089-.433-.314 0-.594.07-.84.21a1.444 1.444 0 00-.571.59c-.136.26-.204.573-.204.94zm12.767-1.143l-1.641.179a1.31 1.31 0 00-.243-.467 1.216 1.216 0 00-.458-.353 1.664 1.664 0 00-.706-.135c-.374 0-.689.082-.944.244-.252.162-.377.373-.373.631a.66.66 0 00.243.542c.169.14.448.254.836.343l1.302.279c.723.156 1.26.402 1.611.74.355.339.533.781.537 1.328-.004.48-.144.905-.423 1.273-.275.364-.658.65-1.148.855-.491.205-1.054.308-1.691.308-.934 0-1.687-.196-2.257-.587-.57-.394-.909-.943-1.019-1.645l1.755-.17c.08.345.249.606.507.781.259.176.595.264 1.009.264.428 0 .771-.088 1.03-.264.261-.175.392-.392.392-.651 0-.219-.084-.4-.253-.542-.166-.142-.424-.252-.776-.328l-1.302-.273c-.733-.153-1.275-.41-1.626-.771-.351-.365-.525-.825-.522-1.382-.003-.47.124-.879.383-1.223.262-.348.625-.617 1.089-.806.467-.192 1.005-.288 1.615-.288.895 0 1.599.19 2.113.572.517.38.837.896.96 1.546z" fill="#fff"/><path d="M852 94v68.404" stroke="#BACEEC" stroke-dasharray="4 4"/><circle cx="895.5" cy="122.5" r="14" fill="#14AA5F" fill-opacity=".15" stroke="#14AA5F"/><path d="M901.958 116.383l-9.468 9.545-4.274-4.309a1.291 1.291 0 00-1.836 0 1.316 1.316 0 000 1.851l5.193 5.236a1.3 1.3 0 00.919.382c.333 0 .665-.128.915-.382l10.386-10.472a1.316 1.316 0 000-1.851 1.29 1.29 0 00-1.835 0z" fill="#14AA5F"/><g filter="url(#filter3_d_314_78)"><rect x="57" y="94" width="241" height="70" rx="8" fill="url(#paint1_linear_314_78)"/></g><path d="M134.75 122v-9.6h-2.955v-1.35h7.41v1.35h-2.955v9.6h-1.5zm6.819 0v-8.25h1.47v1.575h.345l-.345.345c0-.65.195-1.155.585-1.515.4-.37.95-.555 1.65-.555.85 0 1.53.275 2.04.825.51.55.765 1.29.765 2.22v.6h-1.5v-.465c0-.6-.155-1.065-.465-1.395-.3-.33-.745-.495-1.335-.495-.55 0-.975.165-1.275.495-.3.32-.45.79-.45 1.41V122h-1.485zm11.154.15c-.87 0-1.555-.22-2.055-.66-.49-.45-.735-1.055-.735-1.815 0-.78.255-1.39.765-1.83.52-.45 1.225-.675 2.115-.675h2.4v-.78c0-.48-.15-.85-.45-1.11-.29-.27-.695-.405-1.215-.405-.47 0-.865.105-1.185.315-.31.2-.5.465-.57.795h-1.455c.04-.48.2-.895.48-1.245.29-.36.67-.64 1.14-.84.48-.2 1.015-.3 1.605-.3.97 0 1.735.245 2.295.735.56.49.84 1.16.84 2.01V122h-1.455v-1.53h-.24l.255-.285c0 .61-.235 1.09-.705 1.44-.46.35-1.07.525-1.83.525zm.405-1.155c.61 0 1.11-.15 1.5-.45.39-.31.585-.705.585-1.185v-1.125h-2.37c-.44 0-.79.12-1.05.36-.25.24-.375.565-.375.975 0 .45.15.8.45 1.05.3.25.72.375 1.26.375zm6.174 1.005v-8.25h1.47v1.575h.345l-.345.345c0-.65.195-1.155.585-1.515.4-.37.945-.555 1.635-.555.82 0 1.475.26 1.965.78s.735 1.22.735 2.1V122h-1.485v-5.355c0-.57-.15-1.005-.45-1.305-.3-.3-.71-.45-1.23-.45-.54 0-.965.165-1.275.495-.31.32-.465.785-.465 1.395V122h-1.485zm11.905.12c-.58 0-1.095-.09-1.545-.27-.45-.18-.8-.435-1.05-.765a1.97 1.97 0 01-.375-1.2h1.515c0 .3.14.535.42.705.28.17.635.255 1.065.255h.63c.51 0 .89-.1 1.14-.3.26-.21.39-.485.39-.825 0-.34-.12-.605-.36-.795-.24-.2-.585-.335-1.035-.405l-1.11-.165c-.83-.14-1.45-.4-1.86-.78-.4-.39-.6-.925-.6-1.605 0-.76.245-1.34.735-1.74.5-.4 1.22-.6 2.16-.6h.57c.86 0 1.55.195 2.07.585.52.38.78.885.78 1.515h-1.515c0-.25-.12-.45-.36-.6-.24-.15-.575-.225-1.005-.225h-.57c-.45 0-.8.095-1.05.285-.24.18-.36.44-.36.78 0 .57.41.925 1.23 1.065l1.125.18c.9.13 1.56.39 1.98.78.42.39.63.945.63 1.665 0 .77-.25 1.375-.75 1.815-.5.43-1.255.645-2.265.645h-.63zm8.499.03c-.87 0-1.555-.22-2.055-.66-.49-.45-.735-1.055-.735-1.815 0-.78.255-1.39.765-1.83.52-.45 1.225-.675 2.115-.675h2.4v-.78c0-.48-.15-.85-.45-1.11-.29-.27-.695-.405-1.215-.405-.47 0-.865.105-1.185.315-.31.2-.5.465-.57.795h-1.455c.04-.48.2-.895.48-1.245.29-.36.67-.64 1.14-.84.48-.2 1.015-.3 1.605-.3.97 0 1.735.245 2.295.735.56.49.84 1.16.84 2.01V122h-1.455v-1.53h-.24l.255-.285c0 .61-.235 1.09-.705 1.44-.46.35-1.07.525-1.83.525zm.405-1.155c.61 0 1.11-.15 1.5-.45.39-.31.585-.705.585-1.185v-1.125h-2.37c-.44 0-.79.12-1.05.36-.25.24-.375.565-.375.975 0 .45.15.8.45 1.05.3.25.72.375 1.26.375zm9.414 1.155c-.67 0-1.26-.125-1.77-.375-.5-.26-.89-.625-1.17-1.095-.27-.48-.405-1.05-.405-1.71v-2.19c0-.67.135-1.24.405-1.71.28-.47.67-.83 1.17-1.08.51-.26 1.1-.39 1.77-.39.97 0 1.75.26 2.34.78.59.51.9 1.21.93 2.1h-1.47c-.03-.5-.205-.885-.525-1.155-.31-.27-.735-.405-1.275-.405-.57 0-1.025.16-1.365.48-.33.31-.495.765-.495 1.365v2.205c0 .6.165 1.06.495 1.38.34.32.795.48 1.365.48.54 0 .965-.135 1.275-.405.32-.28.495-.665.525-1.155h1.47c-.03.89-.34 1.595-.93 2.115-.59.51-1.37.765-2.34.765zm9.834-.15c-.7 0-1.265-.205-1.695-.615-.42-.41-.63-.955-.63-1.635v-4.65h-2.295v-1.35h2.295v-2.325h1.5v2.325h3.255v1.35h-3.255v4.635c0 .27.075.49.225.66.16.17.37.255.63.255h2.25V122h-2.28zm4.839 0v-1.35h2.895v-5.55h-2.595v-1.35h4.08v6.9h2.715V122h-7.095zm3.495-9.705c-.34 0-.61-.085-.81-.255-.2-.18-.3-.42-.3-.72 0-.31.1-.555.3-.735.2-.18.47-.27.81-.27.34 0 .61.09.81.27.2.18.3.425.3.735 0 .3-.1.54-.3.72-.2.17-.47.255-.81.255zm8.754 9.825c-.67 0-1.255-.125-1.755-.375-.49-.26-.87-.625-1.14-1.095-.26-.48-.39-1.045-.39-1.695v-2.16c0-.65.13-1.21.39-1.68.27-.48.65-.845 1.14-1.095.5-.26 1.085-.39 1.755-.39.68 0 1.265.13 1.755.39.49.25.865.61 1.125 1.08.27.47.405 1.03.405 1.68v2.175c0 .65-.135 1.215-.405 1.695a2.7 2.7 0 01-1.125 1.095c-.49.25-1.075.375-1.755.375zm0-1.305c.57 0 1.01-.155 1.32-.465.32-.32.48-.785.48-1.395v-2.16c0-.61-.16-1.07-.48-1.38-.31-.32-.75-.48-1.32-.48-.56 0-1 .16-1.32.48-.32.31-.48.77-.48 1.38v2.16c0 .61.16 1.075.48 1.395.32.31.76.465 1.32.465zm5.814 1.185v-8.25h1.47v1.575h.345l-.345.345c0-.65.195-1.155.585-1.515.4-.37.945-.555 1.635-.555.82 0 1.475.26 1.965.78s.735 1.22.735 2.1V122h-1.485v-5.355c0-.57-.15-1.005-.45-1.305-.3-.3-.71-.45-1.23-.45-.54 0-.965.165-1.275.495-.31.32-.465.785-.465 1.395V122h-1.485zm17.884 0l.57-3.075h-1.26v-1.05h1.44l.495-2.7h-1.41v-1.05h1.59l.57-3.075h1.125l-.57 3.075h2.325l.57-3.075h1.125l-.57 3.075h1.26v1.05h-1.44l-.495 2.7h1.41v1.05h-1.59l-.57 3.075h-1.125l.57-3.075h-2.325l-.57 3.075h-1.125zm1.875-4.125h2.325l.495-2.7h-2.325l-.495 2.7zM253.849 122v-2.34h-4.92v-2.265l4.005-6.345h1.635l-4.17 6.66v.615h3.45V115.7h1.5v6.3h-1.5zm7.539.15c-.92 0-1.67-.235-2.25-.705-.58-.47-.915-1.11-1.005-1.92h1.485c.05.42.225.745.525.975.31.22.73.33 1.26.33.6 0 1.05-.16 1.35-.48.31-.32.465-.775.465-1.365v-1.065c0-.59-.155-1.045-.465-1.365-.3-.32-.745-.48-1.335-.48-.37 0-.695.095-.975.285-.27.18-.47.425-.6.735h-1.47l.075-6.045h5.865v1.35h-4.44l-.045 3.525h.42l-.42.39c0-.47.185-.84.555-1.11.37-.27.87-.405 1.5-.405.89-.01 1.58.265 2.07.825.5.55.75 1.315.75 2.295v1.065c0 .98-.29 1.755-.87 2.325-.58.56-1.395.84-2.445.84zm7.269-.15l3.93-9.615h-4.05v1.785h-1.485v-3.12h7.08v1.365l-3.84 9.585h-1.635zm10.749.15c-.71 0-1.335-.12-1.875-.36a3.034 3.034 0 01-1.245-1.035 2.69 2.69 0 01-.435-1.515c0-.67.22-1.275.66-1.815.44-.55 1.025-.965 1.755-1.245l1.5-.6c.45-.17.81-.415 1.08-.735.28-.33.42-.685.42-1.065 0-.47-.175-.85-.525-1.14-.34-.3-.785-.45-1.335-.45-.55 0-1 .15-1.35.45-.34.29-.51.67-.51 1.14 0 .39.13.745.39 1.065.27.32.62.56 1.05.72l1.515.585c.75.29 1.345.71 1.785 1.26.45.55.675 1.16.675 1.83 0 .57-.15 1.075-.45 1.515-.29.44-.7.785-1.23 1.035-.53.24-1.155.36-1.875.36zm0-1.305c.63 0 1.135-.165 1.515-.495.39-.33.585-.76.585-1.29 0-.42-.135-.8-.405-1.14-.26-.35-.62-.62-1.08-.81l-1.53-.6c-.79-.31-1.39-.705-1.8-1.185-.4-.49-.6-1.025-.6-1.605 0-.55.14-1.035.42-1.455.29-.43.68-.765 1.17-1.005.5-.25 1.075-.375 1.725-.375.65 0 1.225.125 1.725.375.5.24.89.575 1.17 1.005.28.42.42.905.42 1.455 0 .58-.205 1.115-.615 1.605-.41.49-1.015.89-1.815 1.2l-1.53.6c-.46.19-.82.455-1.08.795-.25.34-.375.715-.375 1.125 0 .54.19.975.57 1.305.39.33.9.495 1.53.495z" fill="#090737"/><path opacity=".3" d="M132.261 147v-9.49h2.977c.581 0 1.083.113 1.508.338.433.225.767.546 1.001.962.234.407.351.893.351 1.456 0 .555-.117 1.04-.351 1.456a2.495 2.495 0 01-1.001.962c-.425.225-.927.338-1.508.338h-1.95V147h-1.027zm1.027-4.914h1.95c.546 0 .979-.165 1.3-.494.329-.329.494-.771.494-1.326 0-.563-.165-1.005-.494-1.326-.321-.329-.754-.494-1.3-.494h-1.95v3.64zm6.989 4.914v-7.15h1.027v1.326h.221l-.26.403c0-.581.173-1.036.52-1.365.355-.329.836-.494 1.443-.494.754 0 1.352.238 1.794.715.442.468.663 1.101.663 1.898v.494h-1.053v-.416c0-.572-.147-1.014-.442-1.326-.286-.312-.702-.468-1.248-.468-.52 0-.923.156-1.209.468-.286.303-.429.745-.429 1.326V147h-1.027zm10.213.117c-.555 0-1.04-.108-1.456-.325a2.4 2.4 0 01-.949-.936c-.217-.407-.325-.888-.325-1.443v-1.976c0-.555.108-1.031.325-1.43a2.3 2.3 0 01.949-.936c.416-.225.901-.338 1.456-.338.563 0 1.049.113 1.456.338.407.217.719.524.936.923.225.399.338.875.338 1.43v1.989c0 .555-.113 1.036-.338 1.443a2.317 2.317 0 01-.936.936c-.407.217-.893.325-1.456.325zm0-.923c.537 0 .953-.152 1.248-.455.295-.303.442-.745.442-1.326v-1.976c0-.581-.152-1.023-.455-1.326-.295-.303-.706-.455-1.235-.455-.529 0-.945.152-1.248.455-.295.303-.442.745-.442 1.326v1.976c0 .581.147 1.023.442 1.326.303.303.719.455 1.248.455zm7.834.936c-.555 0-1.04-.108-1.456-.325a2.384 2.384 0 01-.975-.923c-.226-.407-.338-.888-.338-1.443v-2.028c0-.555.112-1.031.338-1.43.234-.407.559-.719.975-.936.416-.217.901-.325 1.456-.325.814 0 1.469.221 1.963.663.494.442.749 1.044.767 1.807h-1.027c-.018-.494-.178-.875-.481-1.144-.295-.269-.702-.403-1.222-.403-.529 0-.949.156-1.261.468-.312.303-.468.737-.468 1.3v2.028c0 .555.156.988.468 1.3.312.312.732.468 1.261.468.52 0 .927-.134 1.222-.403.303-.277.463-.659.481-1.144h1.027c-.018.763-.273 1.365-.767 1.807-.494.442-1.149.663-1.963.663zm7.756 0c-.555 0-1.036-.108-1.443-.325a2.375 2.375 0 01-.949-.949c-.226-.407-.338-.88-.338-1.417v-2.028c0-.546.112-1.018.338-1.417.225-.407.541-.719.949-.936.407-.225.888-.338 1.443-.338.554 0 1.035.113 1.443.338.407.217.723.529.949.936.225.399.338.871.338 1.417v1.261h-4.446v.767c0 .581.147 1.031.442 1.352.303.312.728.468 1.274.468.459 0 .832-.091 1.118-.273.294-.182.481-.446.559-.793h1.027a2.08 2.08 0 01-.871 1.417c-.486.347-1.097.52-1.833.52zm1.716-4.147v-.572c0-.581-.148-1.027-.442-1.339-.295-.321-.72-.481-1.274-.481-.546 0-.971.16-1.274.481-.295.312-.442.758-.442 1.339v.455h3.536l-.104.117zm5.819 4.134c-.468 0-.889-.078-1.261-.234a2.103 2.103 0 01-.871-.663 1.722 1.722 0 01-.325-1.001h1.053c.017.295.156.533.416.715.268.173.606.26 1.014.26h.624c.468 0 .819-.1 1.053-.299.242-.208.364-.481.364-.819 0-.321-.109-.581-.325-.78-.217-.199-.52-.329-.91-.39l-1.079-.169c-.685-.113-1.196-.334-1.534-.663-.338-.329-.507-.776-.507-1.339 0-.633.208-1.122.624-1.469.424-.355 1.018-.533 1.781-.533h.507c.702 0 1.269.165 1.703.494.433.321.658.75.676 1.287h-1.053c-.018-.26-.148-.468-.39-.624-.234-.156-.555-.234-.962-.234h-.507c-.425 0-.759.095-1.001.286-.243.191-.364.455-.364.793 0 .572.394.919 1.183 1.04l1.066.169c.71.113 1.239.338 1.586.676.346.329.52.793.52 1.391 0 .65-.208 1.166-.624 1.547-.416.373-1.023.559-1.82.559h-.637zm7.795 0c-.468 0-.889-.078-1.261-.234a2.103 2.103 0 01-.871-.663 1.722 1.722 0 01-.325-1.001h1.053c.017.295.156.533.416.715.268.173.606.26 1.014.26h.624c.468 0 .819-.1 1.053-.299.242-.208.364-.481.364-.819 0-.321-.109-.581-.325-.78-.217-.199-.52-.329-.91-.39l-1.079-.169c-.685-.113-1.196-.334-1.534-.663-.338-.329-.507-.776-.507-1.339 0-.633.208-1.122.624-1.469.424-.355 1.018-.533 1.781-.533h.507c.702 0 1.269.165 1.703.494.433.321.658.75.676 1.287h-1.053c-.018-.26-.148-.468-.39-.624-.234-.156-.555-.234-.962-.234h-.507c-.425 0-.759.095-1.001.286-.243.191-.364.455-.364.793 0 .572.394.919 1.183 1.04l1.066.169c.71.113 1.239.338 1.586.676.346.329.52.793.52 1.391 0 .65-.208 1.166-.624 1.547-.416.373-1.023.559-1.82.559h-.637zm5.298-.117v-.936h2.548v-5.278h-2.275v-.936h3.315v6.214h2.418V147h-6.006zm2.951-8.463c-.268 0-.485-.069-.65-.208-.156-.139-.234-.329-.234-.572 0-.251.078-.451.234-.598.165-.147.382-.221.65-.221.269 0 .481.074.637.221.165.147.247.347.247.598a.73.73 0 01-.247.572c-.156.139-.368.208-.637.208zM194.62 147v-7.15h1.027v1.326h.26l-.286.377c0-.572.174-1.018.52-1.339.356-.329.837-.494 1.443-.494.711 0 1.279.225 1.703.676.425.442.637 1.044.637 1.807V147h-1.027v-4.68c0-.546-.143-.966-.429-1.261-.286-.295-.676-.442-1.17-.442-.511 0-.914.156-1.209.468-.294.312-.442.754-.442 1.326V147h-1.027zm8.666 2.34v-.936h2.171c.408 0 .707-.095.897-.286.2-.191.299-.481.299-.871v-.832l.026-1.352h-.234l.247-.299c0 .537-.177.966-.533 1.287-.355.321-.832.481-1.43.481-.728 0-1.304-.238-1.729-.715-.424-.485-.637-1.131-.637-1.937v-1.521c0-.806.213-1.447.637-1.924.425-.477 1.001-.715 1.729-.715.598 0 1.075.16 1.43.481.356.312.533.737.533 1.274l-.234-.299h.208v-1.326h1.014v7.397c0 .659-.195 1.17-.585 1.534-.381.373-.927.559-1.638.559h-2.171zm1.742-3.705c.512 0 .91-.156 1.196-.468.295-.321.442-.763.442-1.326v-1.43c0-.563-.147-1.001-.442-1.313-.286-.321-.684-.481-1.196-.481-.52 0-.923.156-1.209.468-.286.312-.429.754-.429 1.326v1.43c0 .572.143 1.014.429 1.326.286.312.689.468 1.209.468zm9.267 1.495c-.321 0-.572-.091-.754-.273-.191-.191-.286-.442-.286-.754 0-.329.095-.589.286-.78.182-.191.433-.286.754-.286s.576.095.767.286c.182.191.273.451.273.78 0 .312-.091.563-.273.754-.191.182-.446.273-.767.273zm6.357 0c-.321 0-.572-.091-.754-.273-.191-.191-.286-.442-.286-.754 0-.329.095-.589.286-.78.182-.191.433-.286.754-.286s.576.095.767.286c.182.191.273.451.273.78 0 .312-.091.563-.273.754-.191.182-.446.273-.767.273zm6.344 0c-.321 0-.576-.091-.767-.273-.182-.191-.273-.442-.273-.754 0-.329.091-.589.273-.78.191-.191.446-.286.767-.286s.572.095.754.286c.191.191.286.451.286.78 0 .312-.095.563-.286.754-.182.182-.433.273-.754.273z" fill="#000"/><rect x="77" y="109" width="40" height="40" rx="20" fill="#5A50FA"/><path opacity=".4" d="M88.033 126h17.934c1.02 0 1.421-1.351.572-1.929l-8.395-5.717a2.025 2.025 0 00-2.288 0l-8.395 5.717c-.849.578-.448 1.929.572 1.929z" fill="#fff"/><path d="M93.5 126H91v8h2.5v-8zM98.35 126h-2.5v8h2.5v-8zM103.199 126h-2.5v8h2.5v-8z" fill="#fff"/><path opacity=".4" d="M104.382 134c.379 0 .725.214.895.553l1 2a1 1 0 01-.895 1.447H88.618a1 1 0 01-.894-1.447l1-2a1 1 0 01.894-.553h14.764z" fill="#fff"/><path d="M876.67 144.727a.97.97 0 00-.419-.725c-.244-.173-.561-.259-.952-.259-.275 0-.51.041-.707.124a1.049 1.049 0 00-.451.338.817.817 0 00-.159.486.73.73 0 00.103.394.937.937 0 00.287.284c.121.076.255.14.401.192.147.052.295.096.444.131l.682.171c.275.064.539.15.792.259.256.109.484.246.685.412.204.166.365.366.483.6a1.8 1.8 0 01.178.824c0 .426-.109.801-.327 1.126-.218.322-.532.574-.944.756-.41.18-.906.27-1.488.27-.566 0-1.057-.088-1.474-.263a2.194 2.194 0 01-.973-.767c-.232-.336-.358-.745-.376-1.228h1.296c.019.253.097.464.234.632.137.168.316.293.536.376.223.083.471.124.746.124.287 0 .537-.042.753-.127.218-.088.388-.209.511-.363a.872.872 0 00.188-.547.696.696 0 00-.166-.468 1.22 1.22 0 00-.459-.313 4.408 4.408 0 00-.681-.227l-.828-.213c-.599-.154-1.072-.387-1.42-.7-.346-.315-.519-.732-.519-1.253 0-.429.116-.804.348-1.126.235-.322.553-.572.956-.749.402-.18.858-.27 1.367-.27.516 0 .968.09 1.356.27.391.177.698.425.92.742.223.315.337.677.345 1.087h-1.268zm4.864 5.38c-.545 0-1.012-.12-1.403-.359a2.387 2.387 0 01-.898-.991c-.209-.424-.313-.911-.313-1.463 0-.554.107-1.043.32-1.467.213-.426.514-.757.902-.994.39-.239.852-.359 1.385-.359.443 0 .834.082 1.175.245.344.161.617.39.821.686.203.293.319.637.348 1.03h-1.229a1.175 1.175 0 00-.355-.657c-.185-.178-.432-.267-.742-.267-.263 0-.494.071-.693.213-.199.14-.354.341-.465.604a2.464 2.464 0 00-.163.945c0 .371.054.691.163.959.109.265.261.469.458.614.199.142.432.213.7.213.189 0 .358-.036.507-.107.152-.073.279-.178.38-.316.102-.137.172-.304.21-.5h1.229a2.147 2.147 0 01-.341 1.026 2.019 2.019 0 01-.803.696c-.338.166-.736.249-1.193.249zm5.771 0c-.532 0-.994-.118-1.385-.352a2.39 2.39 0 01-.909-.984c-.213-.421-.319-.914-.319-1.477 0-.563.106-1.057.319-1.481.216-.424.519-.753.909-.987.391-.234.853-.352 1.385-.352.533 0 .995.118 1.385.352.391.234.693.563.906.987.215.424.323.918.323 1.481 0 .563-.108 1.056-.323 1.477-.213.422-.515.75-.906.984-.39.234-.852.352-1.385.352zm.007-1.03c.289 0 .531-.08.725-.238.194-.161.338-.377.433-.647.097-.269.146-.57.146-.902 0-.333-.049-.635-.146-.905a1.438 1.438 0 00-.433-.65 1.097 1.097 0 00-.725-.241c-.295 0-.542.08-.738.241a1.46 1.46 0 00-.437.65c-.095.27-.142.572-.142.905 0 .332.047.633.142.902.097.27.243.486.437.647.196.158.443.238.738.238zm3.698.923v-5.455h1.247v.91h.056c.1-.315.27-.558.512-.728.244-.173.522-.26.834-.26.071 0 .151.004.238.011.09.005.165.013.224.025v1.182a1.355 1.355 0 00-.259-.049 2.332 2.332 0 00-.338-.025 1.31 1.31 0 00-.632.152c-.184.1-.33.238-.437.416a1.175 1.175 0 00-.159.614V150h-1.286zm6.155.107c-.547 0-1.019-.114-1.417-.341a2.311 2.311 0 01-.912-.973c-.213-.422-.32-.918-.32-1.488 0-.561.107-1.054.32-1.478.215-.426.516-.757.902-.994.385-.239.839-.359 1.36-.359.336 0 .653.055.951.164.301.106.566.272.796.497.232.225.414.511.547.859.132.346.199.758.199 1.236v.394h-4.471v-.866h3.238a1.382 1.382 0 00-.159-.657 1.167 1.167 0 00-.437-.458 1.223 1.223 0 00-.647-.167c-.262 0-.493.064-.692.192a1.313 1.313 0 00-.465.497 1.422 1.422 0 00-.167.671v.756c0 .318.058.59.174.817.116.225.278.398.486.519.209.118.453.177.732.177.187 0 .356-.026.508-.078.151-.054.283-.134.394-.238a.993.993 0 00.252-.387l1.2.135c-.075.317-.22.594-.433.831a2.119 2.119 0 01-.81.547 3.096 3.096 0 01-1.129.192zm4.305-.029a.764.764 0 01-.554-.227.734.734 0 01-.227-.554.726.726 0 01.227-.547.76.76 0 01.554-.227c.208 0 .389.075.543.227a.744.744 0 01.125.941.821.821 0 01-.284.284.737.737 0 01-.384.103zm0-3.892a.764.764 0 01-.554-.227.741.741 0 01-.227-.554.724.724 0 01.227-.547.756.756 0 01.554-.231c.208 0 .389.077.543.231a.742.742 0 01.125.937.816.816 0 01-.284.285.72.72 0 01-.384.106zm7.16 3.913c-.528 0-.997-.088-1.406-.266a2.336 2.336 0 01-.959-.728 1.71 1.71 0 01-.341-1.055 1.746 1.746 0 01.199-.841c.135-.256.317-.469.547-.639a1.77 1.77 0 01.774-.331v-.049a1.54 1.54 0 01-.909-.572 1.652 1.652 0 01-.341-1.041 1.662 1.662 0 01.312-1.001c.211-.294.5-.524.867-.692a2.944 2.944 0 011.257-.256 2.9 2.9 0 011.246.256c.367.168.656.398.867.692.213.294.319.627.319 1.001 0 .393-.117.74-.351 1.041a1.538 1.538 0 01-.899.572v.049c.285.048.54.158.768.331.229.17.411.383.546.639.138.255.206.536.206.841 0 .393-.116.745-.348 1.055a2.332 2.332 0 01-.958.728c-.405.178-.87.266-1.396.266zm0-1.015c.272 0 .509-.046.71-.139.201-.094.358-.227.469-.397.111-.171.168-.367.17-.59a1.092 1.092 0 00-.181-.614 1.194 1.194 0 00-.479-.423 1.503 1.503 0 00-.689-.153c-.26 0-.492.051-.696.153a1.213 1.213 0 00-.483.423 1.07 1.07 0 00-.17.614c-.003.223.052.419.163.59.111.168.267.299.469.394.203.094.442.142.717.142zm0-3.313c.223 0 .419-.045.589-.135.173-.09.309-.216.409-.377.099-.161.15-.347.153-.557a1.043 1.043 0 00-.15-.547.961.961 0 00-.404-.366 1.299 1.299 0 00-.597-.131c-.23 0-.432.043-.607.131a.958.958 0 00-.405.366 1.01 1.01 0 00-.139.547c-.002.21.045.396.142.557.1.159.236.284.409.377.175.09.375.135.6.135zm6.558 4.367c-.585 0-1.087-.147-1.506-.443-.416-.299-.737-.728-.962-1.289-.223-.564-.334-1.242-.334-2.035.003-.793.115-1.468.338-2.024.224-.559.545-.985.962-1.279.419-.293.92-.44 1.502-.44s1.083.147 1.502.44c.419.294.74.72.963 1.279.224.558.337 1.233.337 2.024 0 .795-.113 1.475-.337 2.038-.223.561-.544.99-.963 1.286-.417.296-.917.443-1.502.443zm0-1.111c.455 0 .813-.224 1.076-.671.265-.45.398-1.112.398-1.985 0-.578-.061-1.063-.181-1.456-.121-.393-.292-.689-.512-.888a1.12 1.12 0 00-.781-.302c-.452 0-.81.225-1.072.675-.263.447-.396 1.104-.398 1.971-.003.58.055 1.067.174 1.463.121.395.291.693.511.895.22.199.482.298.785.298z" fill="#B2B2B3"/><g filter="url(#filter4_dd_314_78)"><circle cx="346" cy="131" r="2" fill="#5A50FB"/><circle cx="346" cy="131" r="1.75" stroke="url(#paint2_linear_314_78)" stroke-opacity=".1" stroke-width=".5"/></g><path d="M329.233 152v-10.182h3.44c.799 0 1.452.144 1.959.433a2.71 2.71 0 011.134 1.158c.245.487.368 1.031.368 1.631 0 .6-.123 1.145-.368 1.635a2.737 2.737 0 01-1.124 1.174c-.507.288-1.157.432-1.949.432h-2.466v-1.093h2.426c.547 0 .986-.095 1.318-.284a1.69 1.69 0 00.721-.766c.152-.324.228-.691.228-1.098a2.53 2.53 0 00-.228-1.094 1.636 1.636 0 00-.726-.756c-.335-.185-.779-.278-1.332-.278h-2.168V152h-1.233zm17.478-5.091c0 1.074-.194 2.002-.582 2.784-.388.782-.92 1.386-1.596 1.81-.676.424-1.448.636-2.317.636-.868 0-1.64-.212-2.316-.636-.677-.424-1.209-1.028-1.596-1.81-.388-.782-.582-1.71-.582-2.784 0-1.074.194-2.002.582-2.784.387-.782.919-1.385 1.596-1.81.676-.424 1.448-.636 2.316-.636.869 0 1.641.212 2.317.636.676.425 1.208 1.028 1.596 1.81.388.782.582 1.71.582 2.784zm-1.194 0c0-.882-.147-1.626-.442-2.232-.292-.607-.688-1.066-1.188-1.377a3.078 3.078 0 00-1.671-.468c-.616 0-1.175.156-1.675.468-.497.311-.893.77-1.188 1.377-.292.606-.438 1.35-.438 2.232 0 .882.146 1.626.438 2.232.295.607.691 1.066 1.188 1.377.5.312 1.059.468 1.675.468.617 0 1.174-.156 1.671-.468.5-.311.896-.77 1.188-1.377.295-.606.442-1.35.442-2.232zm8.835-2.545a1.564 1.564 0 00-.726-1.174c-.424-.278-.945-.417-1.561-.417-.451 0-.845.073-1.183.218a1.894 1.894 0 00-.786.602 1.445 1.445 0 00-.278.87c0 .272.064.506.194.701.132.192.301.353.507.482.205.126.421.231.646.314.226.079.433.144.622.193l1.034.279c.265.069.56.166.885.288.328.123.641.29.939.502.302.209.55.478.746.806.196.328.293.731.293 1.208 0 .55-.144 1.047-.432 1.491-.285.444-.703.797-1.253 1.059-.547.262-1.211.393-1.994.393-.729 0-1.36-.118-1.894-.353-.53-.235-.948-.563-1.253-.984a2.817 2.817 0 01-.512-1.467h1.273c.033.384.162.703.388.955.228.248.517.434.865.556.351.12.729.179 1.133.179.471 0 .894-.076 1.268-.228.375-.156.671-.372.89-.647.219-.278.328-.603.328-.974 0-.338-.094-.613-.283-.825a2.078 2.078 0 00-.746-.517 7.687 7.687 0 00-.999-.348l-1.253-.358c-.796-.229-1.425-.556-1.889-.98-.464-.424-.696-.979-.696-1.665 0-.57.154-1.068.462-1.492a3.073 3.073 0 011.253-.994 4.224 4.224 0 011.765-.358c.656 0 1.239.118 1.75.353.51.232.915.55 1.213.955.301.404.461.863.477 1.377h-1.193zm2.803-1.452v-1.094h7.636v1.094h-3.202V152h-1.233v-9.088h-3.201zM589.233 283.818h1.472l3.46 8.452h.119l3.46-8.452h1.472V294h-1.154v-7.736h-.099L594.781 294h-1.113l-3.182-7.736h-.1V294h-1.153v-10.182zm14.543 10.361c-.484 0-.923-.091-1.317-.273a2.263 2.263 0 01-.94-.801c-.232-.351-.348-.775-.348-1.273 0-.437.086-.792.259-1.064a1.82 1.82 0 01.691-.646c.288-.156.606-.272.954-.348.351-.079.704-.142 1.059-.189.464-.059.84-.104 1.129-.134.291-.033.503-.088.636-.164.136-.076.204-.209.204-.398v-.04c0-.49-.134-.871-.403-1.143-.265-.272-.668-.408-1.208-.408-.56 0-.999.123-1.317.368-.319.245-.542.507-.672.786l-1.113-.398c.199-.464.464-.825.795-1.084.335-.262.7-.444 1.094-.547a4.546 4.546 0 011.173-.159c.246 0 .527.03.845.09.322.056.632.174.93.353.302.179.552.449.751.81.199.361.298.845.298 1.452V294h-1.173v-1.034h-.06a2.042 2.042 0 01-.398.532c-.185.189-.432.35-.74.482-.309.133-.685.199-1.129.199zm.179-1.054c.464 0 .855-.091 1.173-.273a1.863 1.863 0 00.975-1.616v-1.074c-.05.06-.159.114-.328.164a5.534 5.534 0 01-.577.124c-.215.033-.426.063-.631.09-.203.023-.367.043-.493.059-.305.04-.59.105-.855.194a1.465 1.465 0 00-.636.393c-.159.172-.239.408-.239.706 0 .408.151.716.453.925.305.205.691.308 1.158.308zm5.463.875v-7.636h1.133v1.153h.08c.139-.378.391-.684.755-.92a2.229 2.229 0 011.233-.353c.086 0 .194.002.323.005.13.004.228.009.294.015v1.193a3.667 3.667 0 00-.274-.044 2.597 2.597 0 00-.442-.035c-.371 0-.703.078-.994.234a1.761 1.761 0 00-.687.636 1.72 1.72 0 00-.248.92V294h-1.173zm5.368 0v-10.182h1.173v3.759h.099c.087-.133.206-.302.358-.507a2.09 2.09 0 01.667-.557c.291-.166.686-.249 1.183-.249.643 0 1.21.161 1.7.482.491.322.873.778 1.149 1.368.275.59.412 1.286.412 2.088 0 .808-.137 1.509-.412 2.103-.276.59-.657 1.047-1.144 1.372-.487.321-1.049.482-1.685.482-.491 0-.884-.081-1.179-.244a2.182 2.182 0 01-.681-.561 7.881 7.881 0 01-.368-.527h-.139V294h-1.133zm1.153-3.818c0 .577.085 1.085.254 1.526.169.438.416.781.74 1.029.325.245.723.368 1.194.368.49 0 .899-.129 1.228-.388.331-.262.58-.613.745-1.054.169-.444.254-.938.254-1.481 0-.537-.083-1.021-.249-1.452a2.243 2.243 0 00-.74-1.029c-.329-.255-.741-.383-1.238-.383-.478 0-.879.121-1.204.363-.324.239-.57.573-.735 1.004-.166.428-.249.927-.249 1.497zm8.556-6.364V294h-1.173v-10.182h1.173zm5.351 10.341c-.736 0-1.371-.162-1.904-.487a3.266 3.266 0 01-1.228-1.372c-.285-.59-.428-1.276-.428-2.059 0-.782.143-1.471.428-2.068.288-.6.689-1.067 1.203-1.402.517-.338 1.12-.507 1.81-.507.397 0 .79.066 1.178.199.388.133.741.348 1.059.646.318.295.572.686.76 1.174.189.487.284 1.087.284 1.799v.498h-5.887v-1.015h4.694c0-.431-.087-.815-.259-1.153a1.943 1.943 0 00-.726-.8c-.311-.196-.679-.294-1.103-.294-.468 0-.872.116-1.214.348a2.288 2.288 0 00-.78.895 2.632 2.632 0 00-.273 1.183v.676c0 .577.099 1.066.298 1.467.202.398.482.701.84.91.358.205.774.308 1.248.308.308 0 .587-.043.835-.129.252-.09.469-.222.651-.398.183-.179.324-.401.423-.666l1.133.318a2.497 2.497 0 01-.601 1.014c-.282.289-.63.514-1.044.676-.414.16-.88.239-1.397.239zm11.768 0c-.637 0-1.199-.161-1.686-.482-.487-.325-.868-.782-1.143-1.372-.275-.594-.413-1.295-.413-2.103 0-.802.138-1.498.413-2.088.275-.59.658-1.046 1.148-1.368.491-.321 1.058-.482 1.701-.482.497 0 .889.083 1.178.249.291.162.514.348.666.557.156.205.277.374.363.507h.099v-3.759h1.174V294h-1.134v-1.173h-.139a7.523 7.523 0 01-.368.527 2.182 2.182 0 01-.681.561c-.295.163-.688.244-1.178.244zm.159-1.054c.47 0 .868-.123 1.193-.368.325-.248.572-.591.741-1.029.169-.441.253-.949.253-1.526 0-.57-.083-1.069-.248-1.497-.166-.431-.411-.765-.736-1.004-.325-.242-.726-.363-1.203-.363-.497 0-.912.128-1.243.383a2.296 2.296 0 00-.741 1.029 4.102 4.102 0 00-.244 1.452c0 .543.083 1.037.249 1.481.169.441.418.792.746 1.054.331.259.742.388 1.233.388zm7.9 1.074c-.484 0-.923-.091-1.318-.273a2.269 2.269 0 01-.94-.801c-.232-.351-.348-.775-.348-1.273 0-.437.087-.792.259-1.064.172-.275.403-.49.691-.646.288-.156.607-.272.955-.348.351-.079.704-.142 1.059-.189.464-.059.84-.104 1.128-.134.292-.033.504-.088.636-.164.136-.076.204-.209.204-.398v-.04c0-.49-.134-.871-.402-1.143-.266-.272-.668-.408-1.209-.408-.56 0-.999.123-1.317.368-.318.245-.542.507-.671.786l-1.114-.398c.199-.464.464-.825.796-1.084a2.977 2.977 0 011.093-.547 4.547 4.547 0 011.174-.159c.245 0 .527.03.845.09.321.056.631.174.93.353.301.179.551.449.75.81.199.361.299.845.299 1.452V294h-1.174v-1.034h-.059c-.08.166-.212.343-.398.532-.186.189-.433.35-.741.482-.308.133-.684.199-1.128.199zm.179-1.054c.464 0 .855-.091 1.173-.273.321-.183.563-.418.726-.706.165-.289.248-.592.248-.91v-1.074c-.049.06-.159.114-.328.164a5.534 5.534 0 01-.577.124 29 29 0 01-.631.09c-.202.023-.366.043-.492.059-.305.04-.59.105-.855.194a1.475 1.475 0 00-.637.393c-.159.172-.238.408-.238.706 0 .408.151.716.452.925.305.205.691.308 1.159.308zm8.783-6.761v.994h-3.957v-.994h3.957zm-2.804-1.83h1.173v7.278c0 .332.048.581.145.746a.74.74 0 00.377.328c.156.053.32.08.493.08.129 0 .235-.007.318-.02l.199-.04.238 1.054c-.079.03-.19.06-.333.09a2.463 2.463 0 01-.542.049c-.331 0-.656-.071-.974-.213a1.94 1.94 0 01-.786-.652c-.205-.291-.308-.659-.308-1.103v-7.597zm6.816 9.645c-.484 0-.923-.091-1.317-.273a2.263 2.263 0 01-.94-.801c-.232-.351-.348-.775-.348-1.273 0-.437.086-.792.259-1.064a1.82 1.82 0 01.691-.646c.288-.156.606-.272.954-.348.352-.079.705-.142 1.059-.189.464-.059.84-.104 1.129-.134.291-.033.503-.088.636-.164.136-.076.204-.209.204-.398v-.04c0-.49-.134-.871-.403-1.143-.265-.272-.668-.408-1.208-.408-.56 0-.999.123-1.317.368-.319.245-.542.507-.672.786l-1.113-.398c.199-.464.464-.825.795-1.084.335-.262.7-.444 1.094-.547a4.546 4.546 0 011.173-.159c.246 0 .527.03.846.09.321.056.631.174.929.353.302.179.552.449.751.81.199.361.298.845.298 1.452V294h-1.173v-1.034h-.06a2.059 2.059 0 01-.397.532c-.186.189-.433.35-.741.482-.308.133-.685.199-1.129.199zm.179-1.054c.464 0 .855-.091 1.173-.273a1.863 1.863 0 00.975-1.616v-1.074c-.05.06-.159.114-.328.164a5.534 5.534 0 01-.577.124c-.215.033-.426.063-.631.09-.203.023-.367.043-.493.059-.304.04-.589.105-.855.194a1.471 1.471 0 00-.636.393c-.159.172-.239.408-.239.706 0 .408.151.716.453.925.305.205.691.308 1.158.308zm9.4.875v-7.636h1.134v1.193h.099a1.92 1.92 0 01.771-.95c.354-.228.78-.343 1.277-.343.504 0 .924.115 1.258.343.338.226.602.542.791.95h.079c.196-.395.489-.708.88-.94.391-.235.86-.353 1.407-.353.683 0 1.241.214 1.676.642.434.424.651 1.085.651 1.983V294h-1.173v-5.111c0-.563-.154-.966-.463-1.208a1.71 1.71 0 00-1.088-.363c-.537 0-.953.163-1.248.487-.295.322-.443.73-.443 1.223V294h-1.193v-5.23c0-.434-.141-.784-.423-1.049-.281-.269-.644-.403-1.088-.403-.305 0-.59.081-.855.244a1.844 1.844 0 00-.637.676 1.997 1.997 0 00-.238.989V294h-1.174zm15.27.159c-.689 0-1.294-.164-1.814-.492a3.338 3.338 0 01-1.213-1.377c-.289-.59-.433-1.28-.433-2.068 0-.796.144-1.49.433-2.084a3.34 3.34 0 011.213-1.382c.52-.328 1.125-.492 1.814-.492.69 0 1.293.164 1.81.492.52.329.925.789 1.213 1.382.292.594.438 1.288.438 2.084 0 .788-.146 1.478-.438 2.068a3.296 3.296 0 01-1.213 1.377c-.517.328-1.12.492-1.81.492zm0-1.054c.524 0 .955-.134 1.293-.403.338-.268.588-.621.751-1.059.162-.437.243-.911.243-1.421 0-.511-.081-.986-.243-1.427a2.411 2.411 0 00-.751-1.069c-.338-.272-.769-.408-1.293-.408-.523 0-.954.136-1.292.408a2.411 2.411 0 00-.751 1.069 4.104 4.104 0 00-.243 1.427c0 .51.081.984.243 1.421.163.438.413.791.751 1.059.338.269.769.403 1.292.403zm8.135 1.054c-.636 0-1.198-.161-1.685-.482-.487-.325-.869-.782-1.144-1.372-.275-.594-.412-1.295-.412-2.103 0-.802.137-1.498.412-2.088.275-.59.658-1.046 1.149-1.368.49-.321 1.057-.482 1.7-.482.497 0 .89.083 1.178.249.292.162.514.348.667.557.155.205.276.374.362.507h.1v-3.759h1.173V294h-1.133v-1.173h-.14a7.456 7.456 0 01-.367.527c-.16.208-.387.396-.682.561-.294.163-.687.244-1.178.244zm.159-1.054c.471 0 .869-.123 1.193-.368.325-.248.572-.591.741-1.029.169-.441.254-.949.254-1.526 0-.57-.083-1.069-.249-1.497-.165-.431-.411-.765-.736-1.004-.324-.242-.725-.363-1.203-.363-.497 0-.911.128-1.243.383a2.287 2.287 0 00-.74 1.029 4.08 4.08 0 00-.244 1.452c0 .543.083 1.037.249 1.481.169.441.417.792.745 1.054.332.259.743.388 1.233.388zm8.855 1.054c-.736 0-1.371-.162-1.904-.487a3.266 3.266 0 01-1.228-1.372c-.285-.59-.428-1.276-.428-2.059 0-.782.143-1.471.428-2.068.288-.6.689-1.067 1.203-1.402.517-.338 1.12-.507 1.809-.507.398 0 .791.066 1.179.199.387.133.74.348 1.059.646.318.295.571.686.76 1.174.189.487.284 1.087.284 1.799v.498h-5.887v-1.015h4.693c0-.431-.086-.815-.258-1.153a1.943 1.943 0 00-.726-.8c-.311-.196-.679-.294-1.104-.294-.467 0-.871.116-1.213.348a2.288 2.288 0 00-.78.895 2.62 2.62 0 00-.274 1.183v.676c0 .577.1 1.066.299 1.467.202.398.482.701.84.91.358.205.774.308 1.248.308.308 0 .586-.043.835-.129.252-.09.469-.222.651-.398.183-.179.323-.401.423-.666l1.133.318c-.119.385-.32.723-.601 1.014-.282.289-.63.514-1.044.676-.415.16-.88.239-1.397.239zm6.12-10.341V294h-1.174v-10.182h1.174z" fill="#B2B2B3"/><defs><filter id="filter0_dd_314_78" x="644" y="174" width="12" height="12" filterUnits="userSpaceOnUse" color-interpolation-filters="sRGB"><feFlood flood-opacity="0" result="BackgroundImageFix"/><feColorMatrix in="SourceAlpha" values="0 0 0 0 0 0 0 0 0 0 0 0 0 0 0 0 0 0 127 0" result="hardAlpha"/><feOffset/><feGaussianBlur stdDeviation="2"/><feComposite in2="hardAlpha" operator="out"/><feColorMatrix values="0 0 0 0 0.352941 0 0 0 0 0.313726 0 0 0 0 0.984314 0 0 0 1 0"/><feBlend in2="BackgroundImageFix" result="effect1_dropShadow_314_78"/><feColorMatrix in="SourceAlpha" values="0 0 0 0 0 0 0 0 0 0 0 0 0 0 0 0 0 0 127 0" result="hardAlpha"/><feOffset/><feGaussianBlur stdDeviation="2"/><feComposite in2="hardAlpha" operator="out"/><feColorMatrix values="0 0 0 0 0.352941 0 0 0 0 0.313726 0 0 0 0 0.984314 0 0 0 1 0"/><feBlend in2="effect1_dropShadow_314_78" result="effect2_dropShadow_314_78"/><feBlend in="SourceGraphic" in2="effect2_dropShadow_314_78" result="shape"/></filter><filter id="filter1_d_314_78" x="363" y="31" width="606" height="166" filterUnits="userSpaceOnUse" color-interpolation-filters="sRGB"><feFlood flood-opacity="0" result="BackgroundImageFix"/><feColorMatrix in="SourceAlpha" values="0 0 0 0 0 0 0 0 0 0 0 0 0 0 0 0 0 0 127 0" result="hardAlpha"/><feOffset dy="4"/><feGaussianBlur stdDeviation="15"/><feComposite in2="hardAlpha" operator="out"/><feColorMatrix values="0 0 0 0 0.789062 0 0 0 0 0.830625 0 0 0 0 0.9375 0 0 0 0.45 0"/><feBlend in2="BackgroundImageFix" result="effect1_dropShadow_314_78"/><feBlend in="SourceGraphic" in2="effect1_dropShadow_314_78" result="shape"/></filter><filter id="filter2_d_314_78" x="363" y="31" width="606" height="97" filterUnits="userSpaceOnUse" color-interpolation-filters="sRGB"><feFlood flood-opacity="0" result="BackgroundImageFix"/><feColorMatrix in="SourceAlpha" values="0 0 0 0 0 0 0 0 0 0 0 0 0 0 0 0 0 0 127 0" result="hardAlpha"/><feOffset dy="4"/><feGaussianBlur stdDeviation="15"/><feComposite in2="hardAlpha" operator="out"/><feColorMatrix values="0 0 0 0 0.789062 0 0 0 0 0.883523 0 0 0 0 0.9375 0 0 0 0.7 0"/><feBlend in2="BackgroundImageFix" result="effect1_dropShadow_314_78"/><feBlend in="SourceGraphic" in2="effect1_dropShadow_314_78" result="shape"/></filter><filter id="filter3_d_314_78" x="27" y="68" width="301" height="130" filterUnits="userSpaceOnUse" color-interpolation-filters="sRGB"><feFlood flood-opacity="0" result="BackgroundImageFix"/><feColorMatrix in="SourceAlpha" values="0 0 0 0 0 0 0 0 0 0 0 0 0 0 0 0 0 0 127 0" result="hardAlpha"/><feOffset dy="4"/><feGaussianBlur stdDeviation="15"/><feColorMatrix values="0 0 0 0 0.788235 0 0 0 0 0.831373 0 0 0 0 0.937255 0 0 0 0.45 0"/><feBlend in2="BackgroundImageFix" result="effect1_dropShadow_314_78"/><feBlend in="SourceGraphic" in2="effect1_dropShadow_314_78" result="shape"/></filter><filter id="filter4_dd_314_78" x="340" y="125" width="12" height="12" filterUnits="userSpaceOnUse" color-interpolation-filters="sRGB"><feFlood flood-opacity="0" result="BackgroundImageFix"/><feColorMatrix in="SourceAlpha" values="0 0 0 0 0 0 0 0 0 0 0 0 0 0 0 0 0 0 127 0" result="hardAlpha"/><feOffset/><feGaussianBlur stdDeviation="2"/><feComposite in2="hardAlpha" operator="out"/><feColorMatrix values="0 0 0 0 0.352941 0 0 0 0 0.313726 0 0 0 0 0.984314 0 0 0 1 0"/><feBlend in2="BackgroundImageFix" result="effect1_dropShadow_314_78"/><feColorMatrix in="SourceAlpha" values="0 0 0 0 0 0 0 0 0 0 0 0 0 0 0 0 0 0 127 0" result="hardAlpha"/><feOffset/><feGaussianBlur stdDeviation="2"/><feComposite in2="hardAlpha" operator="out"/><feColorMatrix values="0 0 0 0 0.352941 0 0 0 0 0.313726 0 0 0 0 0.984314 0 0 0 1 0"/><feBlend in2="effect1_dropShadow_314_78" result="effect2_dropShadow_314_78"/><feBlend in="SourceGraphic" in2="effect2_dropShadow_314_78" result="shape"/></filter><linearGradient id="paint0_linear_314_78" x1="649.588" y1="179.5" x2="650" y2="182" gradientUnits="userSpaceOnUse"><stop offset=".229" stop-color="#fff" stop-opacity="0"/><stop offset="1" stop-color="#fff"/></linearGradient><linearGradient id="paint1_linear_314_78" x1="177.421" y1="92.381" x2="177.421" y2="164.755" gradientUnits="userSpaceOnUse"><stop offset=".052" stop-color="#EDF2FA"/><stop offset=".458" stop-color="#FDFEFF"/></linearGradient><linearGradient id="paint2_linear_314_78" x1="345.588" y1="130.5" x2="346" y2="133" gradientUnits="userSpaceOnUse"><stop offset=".229" stop-color="#fff" stop-opacity="0"/><stop offset="1" stop-color="#fff"/></linearGradient></defs></svg>